<svg width="12" height="12" viewBox="0 0 12 12" fill="none" xmlns="http://www.w3.org/2000/svg">
<g clip-path="url(#clip0_1831_3057)">
<rect width="12" height="12" fill="white"/>
<path fill-rule="evenodd" clip-rule="evenodd" d="M1.125 2.0625C1.125 2.01278 1.14476 1.96508 1.17992 1.92992C1.21508 1.89476 1.26278 1.875 1.3125 1.875H7.6875C7.73722 1.875 7.78492 1.89476 7.8201 1.92992C7.85527 1.96508 7.875 2.01278 7.875 2.0625V6.1875C7.875 6.23722 7.85527 6.28492 7.8201 6.32008C7.78492 6.35524 7.73722 6.375 7.6875 6.375H5.0625C4.91336 6.37513 4.77039 6.43448 4.665 6.54L2.625 8.58V6.9375C2.625 6.78832 2.56573 6.64524 2.46025 6.53975C2.35476 6.43427 2.21168 6.375 2.0625 6.375H1.3125C1.26278 6.375 1.21508 6.35524 1.17992 6.32008C1.14476 6.28492 1.125 6.23722 1.125 6.1875V2.0625ZM1.3125 0.75C0.964402 0.75 0.630564 0.888278 0.384422 1.13442C0.138281 1.38056 0 1.7144 0 2.0625V6.1875C0 6.912 0.588 7.5 1.3125 7.5H1.5V8.65725C1.50007 8.87333 1.56421 9.08452 1.68428 9.26415C1.80436 9.44377 1.975 9.5838 2.17462 9.66645C2.37425 9.7491 2.59391 9.77078 2.80583 9.72863C3.01775 9.68648 3.21243 9.58252 3.36525 9.42975L5.29575 7.5H7.6875C8.03558 7.5 8.3694 7.36172 8.61555 7.11558C8.8617 6.86944 9 6.5356 9 6.1875V2.0625C9 1.7144 8.8617 1.38056 8.61555 1.13442C8.3694 0.888278 8.03558 0.75 7.6875 0.75H1.3125ZM10.875 3.5625C10.875 3.51278 10.8553 3.46508 10.8201 3.42991C10.7849 3.39475 10.7372 3.375 10.6875 3.375H10.3125C10.1633 3.375 10.0202 3.31574 9.91477 3.21025C9.80925 3.10476 9.75 2.96168 9.75 2.8125C9.75 2.66332 9.80925 2.52024 9.91477 2.41475C10.0202 2.30927 10.1633 2.25 10.3125 2.25H10.6875C11.412 2.25 12 2.838 12 3.5625V7.6875C12 8.03558 11.8617 8.3694 11.6156 8.61555C11.3694 8.8617 11.0356 9 10.6875 9H10.5V10.1573C10.4999 10.3733 10.4358 10.5845 10.3157 10.7641C10.1957 10.9438 10.025 11.0838 9.82538 11.1665C9.62573 11.2491 9.40612 11.2708 9.19417 11.2286C8.98222 11.1865 8.7876 11.0825 8.63475 10.9297L6.915 9.21C6.85973 9.15847 6.81541 9.09637 6.78466 9.02737C6.75392 8.95837 6.73739 8.8839 6.73606 8.80838C6.73472 8.73285 6.74862 8.65785 6.77691 8.5878C6.8052 8.51775 6.84731 8.45415 6.90072 8.40075C6.95414 8.34728 7.01776 8.3052 7.0878 8.27693C7.15784 8.24865 7.23287 8.2347 7.30839 8.23605C7.38392 8.2374 7.4584 8.2539 7.52737 8.28465C7.59637 8.3154 7.65847 8.35973 7.71 8.415L9.375 10.08V8.4375C9.375 8.28833 9.43425 8.14522 9.53977 8.03977C9.64522 7.93425 9.78833 7.875 9.9375 7.875H10.6875C10.7372 7.875 10.7849 7.85527 10.8201 7.8201C10.8553 7.78492 10.875 7.73722 10.875 7.6875V3.5625Z" fill="#696C7B"/>
</g>
<defs>
<clipPath id="clip0_1831_3057">
<rect width="12" height="12" fill="white"/>
</clipPath>
</defs>
</svg>
