<svg width="127" height="99" viewBox="0 0 127 99" fill="none" xmlns="http://www.w3.org/2000/svg">
<path fill-rule="evenodd" clip-rule="evenodd" d="M24 97C11.8497 97 2 87.3741 2 75.5C2 63.6259 11.8497 54 24 54C24.5167 54 25.0292 54.0174 25.537 54.0517C25.1842 52.0878 25 50.0654 25 48C25 29.2223 40.2223 14 59 14C73.991 14 86.7161 23.702 91.2386 37.1695C92.3101 37.0575 93.3983 37 94.5 37C111.345 37 125 50.4315 125 67C125 82.7406 112.675 95.7273 97 96.9782V97H40.5078H24ZM35.996 97H29.0314Z" fill="white"/>
<path d="M35.996 97H29.0314M24 97C11.8497 97 2 87.3741 2 75.5C2 63.6259 11.8497 54 24 54C24.5167 54 25.0292 54.0174 25.537 54.0517C25.1842 52.0878 25 50.0654 25 48C25 29.2223 40.2223 14 59 14C73.991 14 86.7161 23.702 91.2386 37.1695C92.3101 37.0575 93.3983 37 94.5 37C111.345 37 125 50.4315 125 67C125 82.7406 112.675 95.7273 97 96.9782V97H40.5078H24Z" stroke="#2C2C2E" stroke-width="2.5" stroke-linecap="round"/>
<path fill-rule="evenodd" clip-rule="evenodd" d="M48.6123 21.3426C48.6123 53.5657 77.6328 80.118 115 83.7029C110.317 89.4611 103.086 93.3675 94.8469 93.9813V94H27.7431C19.6013 94 6 90.5697 6 75.5483C6 60.527 16.5742 57.0967 27.7431 57.0967C28.218 57.0967 28.6891 57.1116 29.1559 57.141C28.8316 55.4556 28.7746 53.7184 28.6623 51.9474C27.9038 39.9842 33.1229 24.907 48.6304 20C48.618 20.4473 48.6123 20.8944 48.6123 21.3426ZM59.1163 71.7579C56.0776 71.7579 53.6142 74.1921 53.6142 77.1949C53.6142 80.1976 56.0776 82.6318 59.1163 82.6318C62.155 82.6318 64.6184 80.1976 64.6184 77.1949C64.6184 74.1921 62.155 71.7579 59.1163 71.7579Z" fill="#E5E5EA"/>
<path d="M59.5 83C62.5376 83 65 80.5376 65 77.5C65 74.4624 62.5376 72 59.5 72C56.4624 72 54 74.4624 54 77.5C54 80.5376 56.4624 83 59.5 83Z" stroke="#2C2C2E" stroke-width="2.5"/>
<path d="M44 66L51 60.5068L44 55.2776" stroke="#2C2C2E" stroke-width="2.5" stroke-linecap="round" stroke-linejoin="round"/>
<path d="M75 66L68 60.5068L75 55.2776" stroke="#2C2C2E" stroke-width="2.5" stroke-linecap="round" stroke-linejoin="round"/>
<path d="M68.9999 24C75.5088 25.7226 80.6481 30.8129 82.4402 37.2932" stroke="#E5E5EA" stroke-opacity="0.8" stroke-width="2.5" stroke-linecap="round"/>
<path d="M90 7C91.6569 7 93 5.65685 93 4C93 2.34315 91.6569 1 90 1C88.3431 1 87 2.34315 87 4C87 5.65685 88.3431 7 90 7Z" stroke="#E5E5EA" stroke-width="2"/>
<path d="M121 23C122.657 23 124 21.6569 124 20C124 18.3431 122.657 17 121 17C119.343 17 118 18.3431 118 20C118 21.6569 119.343 23 121 23Z" fill="#E5E5EA"/>
<path d="M97.7573 14.7573L106.116 23.1156M106.243 14.7573L97.8844 23.1156L106.243 14.7573Z" stroke="#E5E5EA" stroke-width="2.5" stroke-linecap="round" stroke-linejoin="round"/>
<path d="M3.40381 32.5962L9.40381 38.5962M9.40381 32.5962L3.40381 38.5962L9.40381 32.5962Z" stroke="#E5E5EA" stroke-width="2.5" stroke-linecap="round" stroke-linejoin="round"/>
<path d="M17 26C18.6569 26 20 24.6569 20 23C20 21.3431 18.6569 20 17 20C15.3431 20 14 21.3431 14 23C14 24.6569 15.3431 26 17 26Z" fill="#E5E5EA"/>
</svg>
