<svg width="132" height="132" viewBox="0 0 132 132" fill="none" xmlns="http://www.w3.org/2000/svg">
<path fill-rule="evenodd" clip-rule="evenodd" d="M68.373 0.111443C86.9845 -1.46908 100.555 14.1033 112.84 25.157C122.881 34.1909 129.224 45.1502 131.581 56.9803C133.661 67.4241 127.437 77.0844 125.262 87.5164C122.542 100.566 131.011 118.024 117.254 125.7C103.463 133.395 85.2822 118.489 68.373 119.257C49.5978 120.11 31.7432 137.318 15.1859 130.338C-0.818898 123.591 0.0240495 104.662 0.00233549 90.4357C-0.014932 79.1228 9.61381 69.9744 15.0778 59.5006C20.0055 50.055 22.9127 40.5069 30.4053 32.1575C41.3714 19.9375 49.4027 1.72244 68.373 0.111443Z" fill="#E5E5EA"/>
<g opacity="0.7">
<path opacity="0.7" d="M32.0884 25.7982C32.1313 25.8613 32.1546 25.9359 32.1554 26.0125C32.1561 26.0891 32.1342 26.1641 32.0925 26.2281C30.202 29.1509 29.1207 32.1554 27.8612 35.7647C26.124 40.7433 25.9948 46.1149 26.6074 51.3362C27.22 56.5576 29.0882 61.7406 32.6057 65.8215C34.2056 67.5852 35.9473 69.2117 37.813 70.6845C39.6742 72.3154 41.6771 73.7734 43.7973 75.0406C46.2008 76.393 48.8646 77.0451 51.4468 77.8244C56.0206 79.2047 56.6456 78.4689 61.0841 78.4972C61.8183 81.0217 62.0772 84.8028 62.8115 87.3273C59.7209 88.3344 62.196 87.569 57.021 87.9442C55.6283 88.0565 54.2428 88.2461 52.8707 88.5121C50.2429 88.9591 47.575 89.1169 44.9135 88.9828C42.1301 88.9127 39.3449 88.9951 36.5703 89.2297C33.4637 89.4756 30.3442 89.5355 27.2273 89.5953L15.7821 89.8149C15.1633 89.8268 14.4597 89.8055 14.0511 89.3684C13.7974 89.033 13.6593 88.6228 13.658 88.2005L12.145 74.0507C11.8756 72.0792 11.7801 70.0873 11.8598 68.0987C11.9731 66.4709 12.3211 64.8623 12.4059 63.233C12.5435 60.5898 11.9863 57.9577 11.939 55.3117C11.8929 52.733 12.3315 50.1614 12.2591 47.5833C12.197 45.3764 11.7609 43.186 11.7772 40.9783C11.8099 36.5521 13.6564 32.1494 12.8477 27.7889C12.6669 26.8141 12.4676 25.5737 13.3589 25.0479C13.7369 24.8678 14.1526 24.7838 14.57 24.8034C20.5182 24.603 25.4844 24.931 31.3675 25.3827C31.5106 25.3937 31.6495 25.4366 31.7742 25.5085C31.8988 25.5803 32.0062 25.6793 32.0884 25.7982L32.0884 25.7982Z" fill="white"/>
</g>
<g opacity="0.5">
<path opacity="0.5" d="M81.435 74.4068C83.1411 75.7439 84.4682 77.5026 85.7718 79.2422C94.6697 91.1159 103.433 103.091 112.061 115.168C112.82 116.231 113.653 117.352 114.874 117.79C116.249 118.284 117.798 117.774 119.012 116.956C119.761 116.522 120.331 115.83 120.616 115.006C120.998 113.548 119.902 112.156 118.884 111.053C115.798 107.713 112.697 104.386 109.581 101.074C108.215 99.6217 106.847 98.1713 105.477 96.7227L99.1492 90.0238C93.7799 84.3393 88.4932 77.9665 82.8303 72.5811" fill="white"/>
</g>
<path d="M79.1009 67.3763C75.2424 70.4187 71.1262 72.8551 66.4163 74.1963C62.3144 75.3643 58.0506 75.7723 53.8888 74.846C48.6187 73.673 43.5174 71.412 39.4563 67.8194C34.4737 63.3069 31.23 57.1584 30.2989 50.4613C29.4097 43.7745 30.5668 36.9728 33.6147 30.9707C34.3733 29.3893 35.3257 27.9107 36.4494 26.5696C37.9521 24.827 39.6422 23.2592 41.4886 21.8953C42.5072 21.1096 43.6024 20.431 44.7571 19.87C52.6772 15.7672 63.8007 15.8073 72.0387 19.2105C73.819 19.946 75.6077 20.7446 77.1179 21.9485C82.0655 25.8929 84.2683 29.7813 86.1938 34.6894C87.2102 37.4078 87.9133 40.2355 88.2893 43.1166C88.9049 47.7067 88.3313 52.3798 86.6247 56.6786C84.918 60.9774 82.1367 64.7546 78.553 67.6407" fill="white"/>
<path d="M78.3172 67.1271C78.3292 67.1164 78.3433 67.1085 78.3585 67.1039C78.3738 67.0993 78.3899 67.0981 78.4057 67.1004C78.7519 67.0745 79.3972 67.1964 79.1866 68.0972C79.1754 68.1362 79.158 68.1731 79.1352 68.2064C79.0994 68.2321 78.4493 68.7488 77.4526 69.457C77.0861 69.7098 76.7124 69.9675 76.3315 70.2302C75.0551 71.0878 73.7295 71.8683 72.3618 72.5675C69.4804 74.0428 66.3967 75.0735 63.2132 75.6252C59.8395 76.2516 56.3733 76.1551 53.0388 75.3418C49.5881 74.5311 46.2772 73.2016 43.2167 71.3978C36.9413 67.7317 32.1404 61.2073 30.2887 53.7944C28.3607 46.3711 29.3959 38.2274 32.7196 31.2869C33.5224 29.5101 34.5472 27.8448 35.7691 26.3316C37.0173 24.8686 38.3878 23.5169 39.8654 22.2916C40.6117 21.6675 41.4018 21.1322 42.1649 20.5925C42.9623 20.0522 43.7996 19.5748 44.6695 19.1644C46.3696 18.3146 48.1529 17.6468 49.9904 17.1719C51.7998 16.6875 53.6478 16.3648 55.5131 16.2077C59.1766 15.8772 62.8682 16.0863 66.4723 16.8285C68.2415 17.1826 69.9772 17.6899 71.6604 18.3448C73.3397 18.952 74.9541 19.729 76.4792 20.6638C77.9252 21.6683 79.2685 22.8161 80.4893 24.09C82.8473 26.541 84.7305 29.4168 86.0415 32.5686C87.3458 35.4957 88.2573 38.5859 88.7518 41.7571C89.3025 44.7264 89.3532 47.7683 88.9019 50.7546C88.4881 53.5003 87.672 56.1683 86.4804 58.6708C85.9215 59.8263 85.2881 60.9435 84.5842 62.015C84.2254 62.5246 83.9047 63.0511 83.5168 63.5166L83.3686 63.7059C83.2159 63.9004 83.083 64.0699 82.9735 64.2095C82.7589 64.4923 82.6194 64.6394 82.6194 64.6394L81.7222 65.4976C81.1413 66.0201 80.5268 66.5032 79.8829 66.9438C77.8093 68.3195 78.4045 67.4247 79.4282 66.3491C79.3721 66.4027 79.9707 65.735 80.5756 65.06C81.1416 64.3514 81.7194 63.628 81.7194 63.628C81.7194 63.628 81.8366 63.4789 82.0417 63.2178C82.0929 63.1524 82.1494 63.0802 82.2113 63.0012L82.3076 62.8783L82.3585 62.8133L82.7375 62.3302C82.8906 62.1074 83.045 61.8828 83.2007 61.6563C86.0081 57.5696 87.6177 52.7649 87.8442 47.7946C87.9099 44.9524 87.5959 42.1141 86.9108 39.3567C86.2147 36.3885 85.1425 33.5235 83.7207 30.8328C82.2375 27.9974 80.2295 25.4764 77.8057 23.4068C77.2014 22.8663 76.5655 22.3632 75.9014 21.9002C75.2195 21.4537 74.5074 21.0562 73.7704 20.7106C72.2512 19.9871 70.6818 19.3768 69.0746 18.8846C65.7669 17.8976 62.3351 17.4009 58.8864 17.4103C55.355 17.3829 51.8424 17.9326 48.4845 19.038C46.8027 19.618 45.1792 20.358 43.6356 21.248C42.9237 21.6837 42.1379 22.2653 41.4297 22.7783C40.7145 23.3228 40.0276 23.9042 39.3716 24.5202C38.0342 25.7276 36.8315 27.0795 35.7852 28.5516C34.7924 30.0736 33.9455 31.6879 33.2561 33.3726C30.4297 40.1046 29.8025 47.8452 31.9478 54.7321C32.9827 58.1531 34.6576 61.3415 36.8814 64.1242C39.0626 66.8332 41.7497 69.0819 44.7898 70.7419C47.7487 72.3521 50.9217 73.5228 54.2109 74.2178C57.3526 74.8428 60.5867 74.8197 63.7193 74.1498C66.7165 73.555 69.6105 72.5162 72.3076 71.067C73.5993 70.378 74.8509 69.6146 76.0561 68.7807C76.2749 68.6278 76.4898 68.4777 76.7005 68.3304C77.6555 67.6505 78.2822 67.1524 78.3172 67.1271Z" fill="#2C2C2E"/>
<path d="M79.5569 69.0562C79.5722 69.0471 79.5891 69.0412 79.6066 69.0388C79.6242 69.0364 79.642 69.0375 79.6591 69.0421C80.0687 69.0584 80.5796 69.374 80.2308 70.1747C80.2163 70.2082 80.1962 70.2389 80.1715 70.2656C79.5822 70.5767 79.0532 70.9926 78.6098 71.4934C78.2905 71.8458 78.0101 72.2325 77.7738 72.6465C77.5967 73.0125 77.5274 73.4222 77.5739 73.8269C77.6714 74.6854 78.2113 75.1777 78.9475 75.0068C79.7053 74.844 80.5069 74.1173 81.2436 73.414C81.976 72.7016 82.6368 71.9177 83.2164 71.0738C83.3986 70.8341 83.5187 70.5521 83.5659 70.2536C83.59 70.1471 83.5869 70.0361 83.5567 69.9311C83.5266 69.8261 83.4704 69.7307 83.3935 69.6538C83.1752 69.4404 82.9071 69.2861 82.6142 69.205C82.3212 69.1239 82.0128 69.1187 81.7173 69.19C80.5964 69.441 80.1915 69.5788 80.2495 69.3746C80.5874 68.9463 81.0415 68.6268 81.5561 68.4552C81.7267 68.3697 81.91 68.3134 82.0988 68.2884C82.609 68.1844 83.1384 68.2389 83.6173 68.4448C83.8953 68.5582 84.1458 68.7309 84.3516 68.9512C84.5575 69.1715 84.7139 69.4341 84.8101 69.7211C84.8726 69.9282 84.9002 70.1444 84.8916 70.3607C84.8893 70.4396 84.8825 70.5184 84.8712 70.5966C84.775 71.0387 84.5914 71.4566 84.3314 71.8251C83.6989 72.7507 82.9762 73.6099 82.1744 74.3899C81.3678 75.1219 80.5743 75.9889 79.2241 76.3344C78.8636 76.4191 78.4886 76.4182 78.1285 76.3318C77.7684 76.2454 77.4329 76.0759 77.1485 75.8365C76.6264 75.3546 76.302 74.6922 76.2395 73.9802C76.1624 73.3097 76.2801 72.631 76.5782 72.027C76.8673 71.505 77.2157 71.0189 77.6162 70.5785C78.1675 69.9574 78.8249 69.4417 79.5569 69.0562V69.0562Z" fill="#2C2C2E"/>
<path d="M77.2597 70.9571C77.2738 70.9468 77.29 70.9397 77.3071 70.9363C77.3242 70.9329 77.3418 70.9333 77.3587 70.9375C77.7377 70.9458 78.4264 71.1464 78.1045 72.1033C78.0884 72.1445 78.0657 72.1828 78.0374 72.2166C77.9958 72.2407 77.2358 72.7337 76.0794 73.3984C75.6547 73.6345 75.2218 73.8752 74.7806 74.1205C73.3042 74.9182 71.7823 75.6268 70.2229 76.2425C66.9376 77.5422 63.4782 78.3369 59.9599 78.6001C56.227 78.9243 52.4683 78.4525 48.9272 77.215C45.2594 75.9684 41.7974 74.1724 38.6568 71.8871C32.2151 67.2352 27.6712 59.6331 26.4294 51.3766C25.1047 43.1014 27.0767 34.3569 31.4127 27.165C32.47 25.3182 33.7584 23.617 35.246 22.1033C36.7554 20.6458 38.3861 19.3223 40.1201 18.1476C40.9984 17.5488 41.9098 17.0518 42.7969 16.5451C43.7207 16.0438 44.6812 15.6147 45.6698 15.2615C47.6062 14.5176 49.6148 13.9818 51.6622 13.663C53.6797 13.3286 55.7225 13.1748 57.7668 13.2033C61.7841 13.2342 65.7757 13.8549 69.6166 15.046C71.5028 15.6204 73.3369 16.3572 75.0986 17.2484C76.8614 18.0874 78.5353 19.1053 80.0945 20.2865C80.8426 20.9057 81.5507 21.5726 82.2146 22.2833C82.8716 22.973 83.5164 23.6714 84.1125 24.41C85.3148 25.8595 86.3666 27.4301 87.2511 29.097C88.0946 30.726 88.7972 32.4257 89.351 34.1771C90.5263 37.5944 90.9921 41.1371 91.2238 44.4778C91.3546 46.1471 91.3621 47.8239 91.2463 49.4944C91.1153 51.107 90.8512 52.7058 90.4569 54.2741C89.7236 57.2157 88.561 60.0305 87.0071 62.6256C86.2801 63.8231 85.476 64.9709 84.6001 66.0616C84.1573 66.5777 83.7543 67.1164 83.2844 67.5816L83.1037 67.7716C82.9177 67.967 82.7557 68.1372 82.6223 68.2773C82.3598 68.5622 82.193 68.7073 82.193 68.7073C82.193 68.7073 81.7408 69.0636 81.1291 69.5453C80.4437 70.0519 79.7259 70.5122 78.9805 70.9232C76.5845 72.1995 77.3239 71.2897 78.5477 70.2288C78.4812 70.281 79.2008 69.6185 79.928 68.9486C80.6163 68.2382 81.3192 67.5129 81.3192 67.5129C81.3192 67.5129 81.4619 67.3632 81.7119 67.1011L81.9186 66.8836L82.036 66.7601L82.0981 66.6949L82.56 66.2096C82.7496 65.9835 82.9407 65.7556 83.1333 65.5258C86.6079 61.3789 88.8538 56.3246 89.6125 50.9443C90.0362 48.016 89.8631 44.8928 89.4927 41.6592C89.3101 40.0334 89.017 38.4222 88.6155 36.8371C88.1815 35.2066 87.645 33.6058 87.0094 32.0443C85.6634 28.8163 83.7089 25.8839 81.255 23.4106C80.6496 22.7605 80.0086 22.1453 79.335 21.5679C78.6419 21.0081 77.9101 20.4993 77.1451 20.0453C75.5693 19.0964 73.9268 18.2655 72.2309 17.5592C68.7383 16.1323 65.0591 15.2264 61.3087 14.87C57.4723 14.4633 53.5962 14.6865 49.8303 15.5309C47.9408 15.9813 46.0981 16.6125 44.3269 17.4158C43.5066 17.8108 42.596 18.3612 41.7695 18.8436C40.9351 19.3589 40.1278 19.9177 39.3507 20.5176C37.7711 21.6885 36.3224 23.0298 35.0302 24.5178C33.7919 26.0664 32.7031 27.7312 31.7788 29.4896C28.0053 36.5077 26.5186 44.8573 28.1354 52.5724C28.9049 56.4017 30.3946 60.046 32.5237 63.3073C34.6138 66.484 37.302 69.2138 40.4348 71.3411C43.4851 73.405 46.8137 75.0137 50.318 76.1175C53.6688 77.1298 57.1875 77.4469 60.6627 77.0498C63.983 76.7201 67.2369 75.8965 70.3192 74.6058C71.7948 73.9931 73.2345 73.2953 74.6311 72.5159C74.8848 72.3728 75.1338 72.2322 75.3782 72.0943C76.4864 71.4562 77.219 70.9809 77.2597 70.9571Z" fill="#2C2C2E"/>
<path d="M81.4531 75.3832C81.4407 75.3738 81.4305 75.3618 81.4232 75.3481C81.4158 75.3343 81.4115 75.3191 81.4106 75.3035C81.3217 74.9854 81.2625 74.3047 82.1959 74.3107C82.2371 74.3132 82.2775 74.3231 82.3154 74.3398C82.8631 74.8062 83.3803 75.308 83.8636 75.8422C84.064 76.0705 84.2683 76.3032 84.4765 76.5405C85.0924 77.2674 85.6725 78.0321 86.2511 78.8031C87.3883 80.3557 88.5606 81.9563 89.768 83.6048C92.1776 86.898 94.7135 90.3635 97.3326 93.943C99.9518 97.5224 102.654 101.216 105.397 104.964C106.769 106.839 108.148 108.724 109.536 110.622L111.619 113.468C112.326 114.4 112.991 115.421 113.695 116.224C114.415 117.036 115.257 117.516 116.236 117.459C117.266 117.364 118.246 116.964 119.052 116.309C119.898 115.668 120.3 114.869 120.02 113.983C119.749 113.079 119.008 112.23 118.229 111.403C115.078 108.025 111.98 104.702 108.984 101.488C102.977 95.0833 97.2609 89.1847 92.602 83.9186C91.4239 82.6203 90.2972 81.3786 89.2218 80.1936C88.3519 79.2611 87.5285 78.3786 86.7516 77.5459C86.586 77.3726 86.4416 77.2216 86.3227 77.0972C86.0843 76.8493 85.9483 76.7077 85.9483 76.7077C85.9483 76.7077 84.6232 75.1409 83.7386 73.9865C82.1818 72.0838 83.0821 72.5364 84.2898 73.4806C84.2423 73.4151 84.9365 74.0065 85.634 74.6252C86.3249 75.2512 87.0301 75.8901 87.0301 75.8901L87.4028 76.2773C87.6796 76.5694 88.0158 76.9241 88.4017 77.3311C90.3349 79.384 92.4596 81.747 94.7747 84.3182C99.373 89.4729 105.016 95.2541 110.931 101.597C113.89 104.789 116.939 108.002 120.059 111.429C120.468 111.91 120.814 112.442 121.089 113.012C121.401 113.658 121.509 114.386 121.397 115.096C121.257 115.804 120.899 116.45 120.375 116.941C119.914 117.386 119.393 117.764 118.827 118.063C117.678 118.747 116.315 118.966 115.013 118.673C113.631 118.287 112.713 117.224 112.008 116.284C106.525 108.79 101.032 101.282 95.8671 94.2236C93.286 90.6964 90.787 87.2813 88.4122 84.036C87.223 82.4155 86.0667 80.8398 84.9433 79.3089C84.3757 78.5557 83.8136 77.8305 83.2288 77.1597C83.1034 77.0191 82.9802 76.8811 82.8594 76.7456C82.42 76.2615 81.9503 75.8064 81.4531 75.3832V75.3832Z" fill="#2C2C2E"/>
<path d="M11.6725 27.1205C11.673 27.0989 11.678 27.0777 11.6873 27.0583C11.6966 27.0389 11.71 27.0218 11.7264 27.0081C12.0127 26.6355 12.7068 26.1292 13.3839 27.1388C13.4113 27.1842 13.4312 27.2337 13.4429 27.2854L13.1804 30.2469C12.5495 37.0171 12.2717 43.8161 12.348 50.6159C12.3764 52.3116 12.4502 54.0049 12.551 55.6957C12.6745 57.3547 12.7868 59.1668 12.7495 60.8762L12.5721 71.1198C12.6056 74.4918 12.9007 77.8559 13.4546 81.1812L14.2427 86.2202L14.6196 88.6311C14.6229 88.6563 14.6213 88.6413 14.6247 88.6456L15.7095 88.6141L35.9692 88.0258C42.4534 87.8085 48.9602 87.7262 55.3997 87.3483C57.0098 87.247 58.6162 87.1199 60.2166 86.9551L61.1135 86.8582L61.6835 86.7939L61.782 86.815C61.7888 86.817 61.796 86.8172 61.8029 86.8154C61.8097 86.8137 61.816 86.8101 61.8211 86.805C61.8293 86.7972 61.8362 86.7879 61.8413 86.7776C61.8435 86.7657 61.8503 86.777 61.8488 86.7432L61.832 86.5733C61.7418 85.6514 61.6411 84.4878 61.5995 83.5208C61.3783 80.2541 62.0016 81.4583 62.5767 83.4002C62.5765 83.2932 62.8787 84.4622 63.1808 85.6581C63.2602 85.9795 63.34 86.3026 63.4149 86.6064C63.5362 87.1618 63.6497 87.682 63.7472 88.1287C63.7579 88.1848 63.7757 88.2456 63.78 88.2948L63.6376 88.3175L63.3725 88.3597L62.9351 88.429L62.5473 88.4901L61.1347 88.6573L59.134 88.859C57.5892 89 56.0437 89.1087 54.4992 89.1959C48.3169 89.5206 42.1748 89.6142 36.0201 89.8171L15.7605 90.4064L14.3121 90.4485L13.679 90.4669L13.3624 90.4761L13.2041 90.4807C13.1447 90.4904 13.0946 90.4886 13.1033 90.4153L12.9072 89.1617L12.4926 86.5123L11.6979 81.4318C11.1308 78.0183 10.8298 74.565 10.7976 71.1038L10.9745 60.8606C11.0079 59.1532 10.9076 57.5543 10.7791 55.8079C10.6765 54.09 10.6016 52.3707 10.5728 50.6518C10.4947 43.7891 10.7743 36.927 11.4103 30.094L11.6725 27.1205Z" fill="#2C2C2E"/>
<path d="M12.4741 26.2994C12.4529 26.3018 12.4314 26.2997 12.4111 26.293C12.3908 26.2864 12.3722 26.2754 12.3564 26.2608C11.951 26.0252 11.3477 25.4001 12.2357 24.5842C12.2761 24.5505 12.3217 24.5237 12.3707 24.505L15.3186 24.3689L21.0709 24.1063L22.7141 24.0305C22.7141 24.0305 25.4264 24.0886 27.3307 24.274C30.559 24.5064 29.285 24.9634 27.3031 25.2695C27.5116 25.2989 22.5576 25.8297 22.5576 25.8297L21.1508 25.8952L15.4141 26.1625L12.4741 26.2994Z" fill="#2C2C2E"/>
<path d="M33.6299 51.3428C33.6176 51.3125 33.6117 51.2799 33.6126 51.2471C33.6135 51.2143 33.6211 51.182 33.635 51.1524C33.791 50.438 34.4539 49.4104 35.9429 50.3391C36.0049 50.3811 36.0596 50.4332 36.1047 50.4933C36.5491 51.8173 37.0846 53.1082 37.7074 54.3566C38.3414 55.6146 39.0561 56.8294 39.8469 57.9931C40.2889 58.6334 40.753 59.2568 41.2395 59.8633C41.2395 59.8633 41.377 60.0555 41.6141 60.3868C41.8471 60.7172 42.1806 61.1762 42.5874 61.6882C43.3899 62.7206 44.476 63.9758 45.4281 64.985C46.2537 65.8169 46.7993 66.3691 47.0897 66.7279C47.3751 67.0946 47.4013 67.2722 47.2283 67.3103C46.8889 67.3803 45.7341 66.8942 44.4578 66.0684C43.4693 65.4362 42.538 64.7169 41.6748 63.9189C40.736 63.0773 39.8437 62.1841 39.002 61.2434C38.5477 60.6788 38.1263 60.0893 37.7094 59.4963C36.8473 58.2337 36.0683 56.9152 35.3774 55.5493C34.6984 54.1901 34.1145 52.7845 33.6299 51.3428V51.3428Z" fill="#C7C7CC"/>
<path d="M83.2253 38.4239C83.2384 38.4948 83.2237 38.5681 83.1841 38.6282C83.1081 38.8309 82.9895 39.0146 82.8366 39.1665C82.6836 39.3185 82.4999 39.4351 82.2981 39.5084C81.8732 39.632 81.3621 39.4479 80.7567 38.9107C80.7061 38.8643 80.6638 38.8094 80.6315 38.7485C80.4417 37.4727 80.005 36.2473 79.3465 35.1422C78.7266 34.072 78.0301 33.0492 77.2624 32.0819C76.7751 31.455 76.2777 30.8433 75.7702 30.2469C75.7702 30.2469 75.2047 29.4561 74.373 28.4601C73.4641 27.3571 72.4646 26.3339 71.3851 25.4012C70.4917 24.683 69.8623 24.2489 69.5099 23.9601C69.1582 23.6659 69.0906 23.4978 69.2515 23.4222C69.5644 23.2749 70.837 23.506 72.2306 24.2118C73.2985 24.7488 74.2975 25.4159 75.2053 26.1981C76.1778 27.0036 77.0997 27.8698 77.9653 28.7916C78.4303 29.3391 78.8728 29.8975 79.3109 30.4569C80.1602 31.5247 80.9307 32.6541 81.6162 33.8361C82.4465 35.2431 82.9933 36.8023 83.2253 38.4239V38.4239Z" fill="#C7C7CC"/>
<path d="M43.0452 54.6339C43.0269 54.6734 43.0205 54.6879 42.958 54.7221C42.5675 54.9788 41.7468 55.2306 41.4331 54.0525C41.4218 54.0006 41.419 53.9472 41.4248 53.8943L42.6385 51.1794L47.8977 39.4061L49.2125 36.4628L49.8699 34.9912L50.3199 33.9838C50.4117 33.7435 50.5298 33.5143 50.6719 33.3005C50.7838 33.146 50.9256 33.0161 51.0885 32.9186C51.4275 32.7165 51.8313 32.6567 52.2133 32.7522C52.5829 32.8418 52.9029 33.0744 53.1046 33.4C53.329 33.6856 53.3645 34.2995 53.4263 34.818L53.5364 35.7335L53.9452 38.9261C54.2542 41.2434 54.5926 43.5564 54.9603 45.8652L55.6082 49.7701C55.6082 49.7701 55.8967 52.4847 55.9923 54.4151C56.2377 57.6753 55.6047 56.484 55.0157 54.5401C55.0158 54.6475 54.7079 53.4775 54.4094 52.2773C54.119 51.0721 53.8238 49.8467 53.8238 49.8467L53.1584 45.8181C52.8079 43.6051 52.4845 41.3879 52.1885 39.1665L51.6935 35.266L49.5152 40.1443L44.2577 51.9184L43.0452 54.6339Z" fill="#2C2C2E"/>
<path d="M46.1202 47.0313C46.1049 47.03 46.0993 47.0298 46.0801 46.9854C45.9606 46.721 45.9008 46.433 45.905 46.1423C45.9092 45.8516 45.9774 45.5655 46.1045 45.3047C46.1171 45.2781 46.1345 45.2542 46.1559 45.2343L52.1927 45.5212C52.7458 45.6549 53.2874 45.8334 53.8122 46.0548C54.9365 46.4898 54.4451 46.8644 53.7225 47.0447C53.7929 47.0871 52.0071 47.3044 52.0071 47.3044L46.1202 47.0313Z" fill="#2C2C2E"/>
<path d="M62.2847 44.2312C62.2535 44.2426 62.2415 44.2447 62.1862 44.224C61.9349 44.1541 61.7031 44.0262 61.509 43.8502C61.3086 43.642 61.1459 43.2886 61.5067 42.6906C61.5417 42.6384 61.586 42.5932 61.6373 42.5573C62.7048 42.1907 63.8431 42.0854 64.9587 42.2499C65.7999 42.3361 66.6356 42.4695 67.4621 42.6495C68.3821 42.8485 69.2443 43.2593 69.9817 43.85C71.3122 45.035 72.3285 46.5375 72.9384 48.2207C73.1522 48.7651 73.3358 49.3211 73.4883 49.8861C73.4883 49.8861 73.6384 50.5918 73.7431 51.542C73.8504 52.576 73.8858 53.6163 73.8491 54.6553C73.7642 57.9459 73.2631 56.6597 72.8657 54.6949C72.8567 54.8008 72.6607 53.6181 72.3886 52.4486C72.2049 51.6713 71.9819 50.9041 71.7205 50.1499C71.6002 49.7196 71.4571 49.2961 71.292 48.8813C70.7909 47.4888 69.9599 46.2416 68.8717 45.249C68.3399 44.8237 67.7163 44.5313 67.0516 44.3956C66.3013 44.235 65.543 44.1152 64.78 44.0369C63.9446 43.9051 63.0903 43.9716 62.2847 44.2312V44.2312Z" fill="#2C2C2E"/>
<path d="M71.6134 47.974C71.6345 47.9758 71.6549 47.9822 71.6732 47.9927C71.6916 48.0033 71.7075 48.0178 71.7197 48.0351C72.0559 48.3435 72.5401 49.0734 71.4923 49.7001C71.4453 49.7249 71.3946 49.7419 71.3423 49.7504C70.4054 49.5808 69.4605 49.4599 68.5114 49.3882C66.5975 49.2579 64.6071 49.8543 63.924 51.3942C63.7454 51.7305 63.6609 52.1098 63.6799 52.4912C63.6988 52.8725 63.8203 53.2414 64.0314 53.558C64.5693 54.2498 65.3131 54.7483 66.1529 54.9798C66.6172 55.1298 67.0956 55.2312 67.5804 55.2825C68.0501 55.3726 68.5273 55.417 69.0055 55.4151C69.9103 55.4457 70.8103 55.2691 71.6381 54.8985C72.0552 54.6551 72.3922 54.2928 72.6067 53.8569C72.7378 53.5945 72.8042 53.4927 72.8979 53.5817C72.967 53.7033 73.0105 53.8379 73.0257 53.9773C73.041 54.1166 73.0277 54.2577 72.9866 54.3916C72.8662 54.9124 72.5841 55.3806 72.1817 55.7279C72.0011 55.9174 71.7884 56.0726 71.5536 56.1861C71.0123 56.4754 70.4351 56.69 69.8374 56.8241C69.2344 56.9672 68.6182 57.0456 67.9989 57.0581C67.7128 57.0651 67.4265 57.0562 67.1413 57.0315C66.6229 56.9629 66.1117 56.8471 65.6139 56.6855C64.3971 56.337 63.3273 55.5939 62.569 54.5707C62.1706 53.9911 61.942 53.3097 61.9096 52.6047C61.8853 51.9211 62.0265 51.2419 62.321 50.6262C62.8916 49.4482 63.8912 48.5394 65.1102 48.0903C66.2255 47.6779 67.4145 47.5089 68.599 47.5943C69.6096 47.6679 70.6158 47.7947 71.6134 47.974Z" fill="#2C2C2E"/>
</svg>
