<svg width="217" height="174" viewBox="0 0 217 174" fill="none" xmlns="http://www.w3.org/2000/svg">
<path fill-rule="evenodd" clip-rule="evenodd" d="M124.622 173.217C150.544 173.217 173.291 154.006 160.516 127.913C147.741 101.819 195.209 102.662 209.152 84.6277C226.157 62.6342 221.232 -30.7245 112.069 26.1915C94.5826 35.3088 49.6732 16.812 34.7765 25.9897C17.2416 36.7929 -7.42889 58.9143 17.2416 81.5745C29.3939 92.7365 -14.1747 121.708 4.90747 147.659C23.5269 172.98 36.5788 148.841 64.9266 154.006C93.2744 159.171 105.371 173.217 124.622 173.217Z" fill="#979797" fill-opacity="0.1"/>
<path d="M94.5355 127.822C94.5355 127.822 100.504 125.025 102.732 123.079C104.96 121.133 107.731 116.298 107.731 116.298C107.731 116.298 138.159 138.192 158 135.069C162.571 134.35 171.479 131.322 172.047 125.988C173.598 111.422 152.137 107.7 156.825 100.314C159.686 95.805 168.575 102.515 168.575 102.515L205.444 120.584C205.444 120.584 192.707 151.866 161.797 153.12C123.774 154.662 94.5355 127.822 94.5355 127.822Z" fill="white"/>
<path fill-rule="evenodd" clip-rule="evenodd" d="M65.3042 5.31347C64.9582 5.17812 63.0998 2.91097 60.7406 2.49833C59.6685 2.31083 60.6415 3.67096 59.4616 3.6832C55.9475 3.71965 50.2367 3.06187 49.1788 3.6832C48.3926 4.14351 50.1242 5.75162 49.1788 5.82544C40.2597 6.52199 26.653 15.3948 23.7008 19.6994C22.7613 21.0693 30.3598 18.7451 29.1492 19.4223C27.7903 20.1825 26.2833 25.1597 25.3823 29.0039C24.7585 31.651 24.3657 35.0578 24.2271 38.7638C24.1116 41.9634 24.1578 42.4929 24.6199 44.2423C25.1513 46.1989 25.5671 46.7743 26.2833 46.4981C26.5375 46.406 26.653 46.0608 26.653 45.4162C26.653 44.9098 26.9302 43.3906 27.2768 42.0325L27.8775 39.5925L28.1316 40.6053C28.455 41.7793 30.3495 45.4162 32.0592 48.0634C32.1514 48.2039 32.5481 48.0252 32.9058 47.1637C33.2318 46.3786 33.0995 45.1244 33.6533 43.7803C34.9148 40.7184 37.3917 36.7375 40.2597 33.5509C44.4984 28.8414 45.9047 23.391 49.8781 19.0159C57.2932 10.8509 66.5996 5.82016 65.3042 5.31347Z" fill="white"/>
<path fill-rule="evenodd" clip-rule="evenodd" d="M29.2546 20.5331C28.0651 21.4861 26.2995 29.2161 26.2692 29.3453C25.6454 31.9924 25.0441 41.185 25.6587 42.9255C26.2734 44.6659 27.9944 38.3921 27.9944 38.3921C27.9944 38.3921 30.5958 45.1222 32.8944 46.9675C32.9925 47.0463 30.1622 38.6408 29.2546 33.7339C28.0565 27.2565 29.9316 19.9908 29.2546 20.5331Z" fill="#E5E5EA"/>
<path fill-rule="evenodd" clip-rule="evenodd" d="M73.5897 155.912C75.8076 155.428 79.5499 153.745 80.9828 153.169C82.4156 152.594 86.7817 146.451 88.3528 139.522C89.4848 134.412 90.0624 127.138 89.4155 125.918C89.3199 125.745 88.9705 122.437 89.9008 123.517C91.9687 125.918 94.4232 129.687 102.168 122.934C104.278 121.094 107.074 118.72 106.338 116.621C104.278 110.749 95.3489 98.9252 93.9877 98.0296C92.3602 96.9586 84.134 97.8687 71.8917 94.2686C58.0081 90.1858 52.227 78.1632 46.7939 79.7282C42.4 80.9939 31.8729 88.7717 29.2309 93.697C16.7581 116.95 31.8729 133.243 35.3151 137.923L38.6573 139.361L38.7728 142.331L38.9345 144.195C39.2349 147.763 39.3504 148.085 40.9676 149.282C45.0107 152.344 52.9814 155.198 60.1897 156.211C63.5397 156.671 70.8172 156.51 73.5897 155.912Z" fill="white"/>
<path fill-rule="evenodd" clip-rule="evenodd" d="M39.9721 141.244L40.1338 143.108C40.4341 146.676 40.5496 146.998 42.1669 148.195C44.552 150.001 48.3041 151.735 52.4601 153.062C55.349 153.984 58.4331 154.709 61.3889 155.124C64.7389 155.584 72.0165 155.423 74.7889 154.825C76.1593 154.529 64.8873 145.706 58.2468 148.195C53.1473 150.107 41.1278 135.524 46.0147 131.714C51.4968 127.44 41.4512 110.582 41.1278 106.922C40.8043 103.262 39.5306 102.388 39.4934 102.516C39.4562 102.645 39.4562 103.082 39.5562 104.137C39.9872 108.685 39.9721 141.244 39.9721 141.244Z" fill="#E5E5EA"/>
<path fill-rule="evenodd" clip-rule="evenodd" d="M124.219 88.7606C123.618 88.5534 122.971 88.093 122.555 87.5636L121.862 86.7119L124.311 84.2949C128.077 80.6119 130.965 76.8368 133.46 72.3482C134.292 70.852 136.394 65.8569 136.394 65.3735C136.394 65.2124 136.648 64.5678 136.949 63.9003C137.411 62.9335 137.757 62.5652 138.751 62.0128C139.929 61.3222 141.269 61.092 141.847 61.4833C142.956 62.2199 142.956 64.5448 141.847 68.5501C140.622 72.9467 138.982 76.1002 135.586 80.6349C135.054 81.3255 134.061 82.6836 133.345 83.6274C131.427 86.1594 130.18 87.3794 128.493 88.3232C126.83 89.2439 125.859 89.359 124.219 88.7606ZM140.808 86.6888L142.471 87.4254C142.816 87.584 146.621 89.4057 151.192 91.5939C158.561 95.1218 167.92 99.6023 167.977 99.6023C168.07 99.6023 168.503 98.6035 168.601 97.4386C168.832 94.9295 169.687 91.5228 170.681 89.1518C171.143 88.093 171.512 86.7696 171.512 86.6545C171.512 86.602 171.137 86.451 170.522 86.2039C169.79 85.9097 168.719 85.4793 167.538 84.9164C161.716 82.1311 150.326 76.4455 148.917 75.5938C147.531 74.7881 147.254 74.7191 147.254 75.2485C147.254 75.939 145.844 79.1387 144.758 80.8651C144.181 81.8088 143.049 83.5122 142.24 84.6401L140.808 86.6888ZM167.584 95.4589C168.247 95.8415 167.099 96.4027 166.822 96.4947C165.189 96.6329 163.267 96.327 161.693 95.4129C160.869 94.8312 154.387 91.2427 150.086 88.8623C148.12 87.7741 146.61 86.9384 146.306 86.7578C145.336 86.1823 144.411 85.5608 144.25 85.3767C143.765 84.7552 144.227 84.479 145.59 84.594C146.409 84.6632 166.153 94.6326 167.584 95.4589ZM73.6691 155.722C75.4513 155.334 78.2178 154.17 79.9794 153.43L79.9801 153.429L79.9832 153.428L79.9864 153.427C80.4141 153.247 80.7823 153.092 81.0622 152.98C82.4951 152.404 86.8612 146.261 88.4322 139.333C89.5643 134.223 90.1419 126.949 89.495 125.729C89.1049 125.022 91.422 127.392 93.1476 129.157L93.1479 129.158C93.671 129.693 94.1397 130.172 94.4622 130.494C104.535 140.461 119.529 148.471 135.101 152.223C142.864 154.111 148.386 154.778 155.802 154.778C168.255 154.778 178.074 152.338 186.991 146.975C187.415 146.72 187.812 146.486 188.19 146.263C191.299 144.429 193.151 143.337 198.22 137.652C203.905 131.276 208.963 116.475 210.649 111.365C211.389 109.063 213.191 99.9075 213.191 97.6227C213.191 94.9178 212.243 93.6405 210.95 92.3284C208.662 90.0956 205.567 89.2899 203.002 90.2567L201.801 90.7171L201.431 89.4971C200.9 87.6556 199.791 86.1824 198.081 85.0775C195.54 83.3971 195.17 83.282 192.883 83.282C191.104 83.282 190.619 83.3741 189.487 83.9036L188.17 84.502L187.892 83.6734C187.361 81.97 185.579 79.5954 184.196 78.9085C182.97 78.2993 180.847 78.2434 179.367 78.5172C176.133 79.1156 173.822 80.6119 172.875 82.7066C172.598 83.3511 172.251 83.8575 172.113 83.8575C171.997 83.8575 167.446 82.591 162.017 80.1971C161.602 80.0136 161.198 79.8352 160.806 79.6619L159.433 79.0553C149.683 74.7497 147.57 73.8165 147.762 72.6474C147.924 71.6576 147.877 71.1051 147.6 70.2534C147.115 68.8263 146.56 68.4349 144.989 68.4349C143.742 68.4349 143.742 68.4349 143.88 67.8134C144.62 64.2916 144.597 62.2659 143.811 60.9768C143.28 60.1252 142.656 59.7799 141.224 59.5727C140.392 59.4576 139.999 59.5267 139.075 60.0331C138.451 60.3553 137.92 60.5855 137.874 60.5395C137.827 60.4935 137.989 59.2274 138.243 57.7312C140.138 46.6592 138.674 37.1195 133.846 26.9913C133.82 26.9369 133.791 26.877 133.761 26.8118L133.684 26.6486C132.216 23.5086 126.314 10.8827 109.433 4.5118C108.669 4.22343 107.946 3.94461 107.251 3.67663C101.501 1.45904 97.6785 -0.0151865 88.4553 0.000118039C78.1176 0.0172613 74.6164 1.47332 67.8008 4.58085C66.8536 5.01821 66.0219 5.27141 65.9526 5.17934C65.8833 5.06424 65.4443 4.78802 65.0053 4.55783C64.5664 4.32765 63.6191 3.75218 62.926 3.2918C60.9391 1.95671 59.7146 1.40426 59.0909 1.54238C58.3746 1.72652 58.3746 2.32502 59.0909 2.60124C59.3912 2.71634 59.7378 3.10765 59.8764 3.49897C60.1767 4.32765 60.5233 4.41972 60.7312 3.72916C60.8236 3.47595 60.9622 3.2918 61.0315 3.33784C61.0578 3.35093 61.1458 3.39196 61.28 3.45457C61.6177 3.61207 62.2482 3.90614 62.926 4.23557C63.8733 4.69595 64.9129 5.17934 65.1902 5.29444C65.6984 5.47859 65.5367 5.6167 63.3419 6.90575C54.7705 11.9238 47.7933 19.7272 43.8888 28.6125C43.2881 29.9475 42.7567 30.7762 42.2022 31.2366C40.7929 32.4105 38.0205 35.7483 37.3736 37.0603C37.0271 37.7739 36.2878 38.8788 35.7102 39.5233C35.1557 40.1679 34.555 40.9966 34.3471 41.3418C34.1623 41.7101 33.9774 41.9633 33.9081 41.9173C33.8619 41.8482 33.9312 40.7203 34.0929 39.4083C34.4395 36.3468 34.4395 35.5411 34.1623 35.472C33.7464 35.357 33.1457 36.9683 32.8916 38.9709C32.7067 40.1909 32.6605 42.0324 32.7761 43.9199L32.9147 46.9124L31.2743 44.2652C30.7093 43.3785 30.1529 42.4919 29.7583 41.863L29.7576 41.862C29.5072 41.4628 29.322 41.1677 29.2412 41.0426C28.6405 40.1679 28.294 38.8558 28.5481 38.4185C28.6867 38.1652 28.6636 38.0502 28.4326 38.0502C27.9474 38.0502 27.0002 39.5924 26.3764 41.3649C26.0761 42.1935 25.7757 42.8841 25.6833 42.8841C25.3367 42.8841 25.4985 34.6434 25.8681 31.9962C26.6305 26.771 28.6405 20.3257 29.5416 20.3257C29.7264 20.3257 29.8881 20.2336 29.8881 20.0955C29.8881 19.6812 29.2874 19.8423 28.8023 20.3717C27.7164 21.5457 26.284 25.1596 25.383 29.0038C24.7592 31.6509 24.3664 35.0577 24.2278 38.7637C24.1123 41.9633 24.1585 42.4928 24.6205 44.2422C25.1519 46.1988 25.5678 46.7743 26.284 46.498C26.5381 46.406 26.6536 46.0607 26.6536 45.4162C26.6536 44.9097 26.9309 43.3905 27.2774 42.0324L27.8781 39.5924L28.1323 40.6052C28.4557 41.7792 30.3502 45.4162 32.0598 48.0633C33.2381 49.8588 33.2612 49.9739 33.654 52.7822C33.8619 54.3705 34.5088 58.2337 36.0105 64.1765C37.3374 69.4272 44.7966 74.636 46.6592 75.9366C46.9046 76.108 47.0529 76.2115 47.0771 76.2383C47.3081 76.4915 47.6316 76.6296 47.8164 76.5606C48.0243 76.4915 48.1398 76.5836 48.1398 76.8368C48.1398 77.067 48.3016 77.3662 48.4864 77.5043C48.7174 77.6655 48.8791 78.287 48.9253 79.3688C49.0409 81.5326 50.6581 85.676 51.9057 87.0341C52.7143 87.9088 54.4009 88.2771 56.2722 87.9549C57.4967 87.7707 57.8433 87.6326 57.7278 87.3564C57.6584 87.1722 58.0974 87.4024 58.6981 87.8628C65.7215 93.2031 72.8374 96.4027 80.8312 97.7839C83.927 98.3133 89.056 98.6125 91.8515 98.4054C93.645 98.2885 94.1373 98.2564 94.2283 98.4322C94.2628 98.4987 94.2398 98.5949 94.2081 98.7276C94.0463 99.3722 94.2543 99.7635 97.6505 105.495C100.354 110.03 100.585 110.329 103.588 113.391C109.965 119.951 116.919 125.038 124.797 128.974C132.213 132.657 144.054 135.719 154.878 136.686C165.702 137.652 173.476 127.754 173.453 125.222C173.407 121.746 172.921 119.468 171.743 117.258C170.588 115.117 169.826 114.38 166.36 112.079C162.502 109.523 160.122 107.429 158.551 105.196C157.558 103.792 157.188 102.203 157.188 101.352C157.188 100.799 157.904 99.5563 158.967 99.3031C159.937 99.0499 160.122 99.0729 161.208 99.6023C161.855 99.9016 163.541 100.684 164.928 101.352C166.337 101.996 167.7 102.641 167.977 102.779C168.795 103.005 169.14 104.599 169.327 105.463C169.369 105.656 169.403 105.813 169.433 105.91C169.756 107.106 171.287 108.652 172.275 109.178C174.009 110.102 178.282 110.226 179.46 108.96C179.76 108.637 180.756 108.241 180.961 108.361C181.167 108.481 181.909 109.477 181.909 110.283C181.932 111.664 182.648 112.93 184.173 114.196C187.061 116.59 189.302 117.166 191.566 116.107C192.744 115.554 193.71 115.339 193.71 115.339C193.71 115.339 194.673 116.563 194.731 116.982C195.185 120.252 200.045 121.623 201.339 121.761C201.635 121.791 202.212 121.664 202.798 121.536L202.798 121.536C203.582 121.364 204.382 121.189 204.55 121.378C204.88 121.749 199.028 131.391 198.22 132.611C190.526 144.121 175.555 151.164 157.234 151.901C145.336 152.384 130.711 149.07 118.028 143.039C109.918 139.149 102.733 134.384 95.0398 127.708C93.6998 126.557 92.1519 125.245 91.5974 124.785C91.0429 124.348 89.726 122.851 88.7094 121.47C86.9998 119.168 86.0295 118.34 86.0295 119.122C86.0295 119.468 87.1384 121.585 88.4091 123.68C88.9174 124.509 89.2408 125.084 89.1253 124.992C89.0098 124.9 88.6401 126.557 88.2936 128.675C87.1615 135.466 85.2901 142.164 83.3957 146.33C82.356 148.586 80.3625 150.271 79.7618 150.731C77.5439 152.412 74.2236 153.167 69.626 153.627C63.804 154.203 55.2326 152.914 48.6943 150.474C46.9616 149.829 42.5026 147.965 42.2022 147.758C42.1842 147.74 42.0819 147.078 41.9391 146.154L41.939 146.153C41.8987 145.893 41.8552 145.611 41.8095 145.318C40.9778 139.632 39.8226 117.741 39.8226 107.613C39.8226 103.423 39.7764 102.503 39.4991 102.503C38.9216 102.503 38.6905 103.055 38.4364 105.035C37.8588 109.546 37.9743 133.095 38.5981 138.044L38.7367 139.172L37.9512 138.734C36.7498 138.044 32.1754 133.417 30.5812 131.276C29.2317 129.446 28.4296 127.102 27.8294 125.349L27.8293 125.348C27.6898 124.94 27.5612 124.565 27.4392 124.235C24.0892 114.981 25.2674 104.597 29.8881 95.2518C33.8157 87.2873 38.6443 82.8677 45.714 80.727C46.8691 80.3817 47.8857 80.0134 48.0012 79.9213C48.4402 79.507 45.6216 79.7141 44.0736 80.1975C39.0371 81.7398 33.7695 85.9522 30.1885 91.3386C25.1519 98.8888 22.8878 110.03 24.4819 119.537C24.8516 121.792 26.3533 126.672 26.7692 127.018C26.806 127.054 26.996 127.452 27.2834 128.052C28.078 129.713 29.617 132.93 30.7198 134.384C32.0598 136.202 36.1029 140.161 37.7895 141.381L38.8523 142.141L39.014 144.006C39.3143 147.573 39.4298 147.896 41.0471 149.093C45.0902 152.154 53.0609 155.009 60.2691 156.021C63.6191 156.482 70.8967 156.321 73.6691 155.722ZM151.759 134.107C138.335 132.933 122.117 126.557 110.38 116.705C105.436 112.538 99.0134 104.436 96.472 99.9475C95.9406 99.0268 95.5479 98.5894 95.0858 98.4743C94.6006 98.3362 95.0165 98.1981 97.0034 97.8759C105.39 96.4487 113.545 92.9728 120.13 88.0238L121.1 87.3102L121.378 87.9778C122.001 89.474 124.404 90.9932 126.183 90.9932C126.899 90.9932 129.302 89.9114 130.758 88.9215L131.751 88.254L132.56 89.0597C133.299 89.7963 133.438 89.8423 134.824 89.8423C136.418 89.8423 138.335 89.1287 139.398 88.1159L139.976 87.5865L141.616 88.6683C142.494 89.2898 144.943 90.648 147.045 91.7298C150.188 93.3411 153.514 95.2057 156.68 97.1393L157.188 97.4615L156.703 98.106C156.194 98.7966 155.248 100.109 155.248 102.111C155.248 104.367 157.602 108.42 162.109 111.204C165.65 113.391 171.743 117.692 171.512 123.979C171.484 124.739 170.634 126.626 169.502 128.33C168.763 129.412 166.706 131.023 164.835 131.967C161.647 133.555 156.033 134.476 151.759 134.107ZM28.5706 30.7762C29.1944 30.9143 29.6102 31.1215 29.5178 31.2135C29.2175 31.5128 27.6234 31.3747 27.2537 31.0064C26.6761 30.4539 26.8147 30.0626 27.6234 29.9015C28.0392 29.8324 28.663 29.4871 29.0096 29.1418C29.3561 28.7966 29.6565 28.6354 29.6565 28.7505C29.6565 29.0498 28.5013 30.1086 27.9237 30.3388C27.554 30.5 27.6696 30.569 28.5706 30.7762ZM37.7658 31.1445C38.4358 30.7762 38.2972 30.523 37.5116 30.6381C36.7261 30.7532 36.6799 30.6611 37.1882 29.8784C37.3961 29.5792 37.5116 29.1418 37.4654 28.9117C37.3961 28.6124 37.2344 28.7505 36.8647 29.4871C36.5875 30.0166 36.1947 30.4539 36.0099 30.4539C35.4323 30.4539 35.3861 30.9143 35.9406 31.1215C36.6568 31.4207 37.2113 31.4207 37.7658 31.1445ZM29.7725 18.5763C29.2181 18.6683 27.4853 19.3589 25.9605 20.1185C24.4125 20.8551 23.0956 21.4766 23.0032 21.4536C20.6467 21.2004 23.9274 17.2872 29.8881 13.282C35.5946 9.43782 39.4529 7.41217 43.0339 6.37632C45.2749 5.7318 47.7932 5.63973 48.5094 6.16916C48.9022 6.4684 48.7636 6.49142 47.0539 6.51444C43.3574 6.51444 39.0832 8.40198 32.1291 13.0288C28.525 15.4227 24.3432 18.8525 24.3432 19.4049C24.3432 19.52 25.0132 19.2899 25.845 18.9216C27.6239 18.1159 29.4491 17.7016 30.2577 17.8857C31.1125 18.1159 30.9277 18.4151 29.7725 18.5763ZM38.7131 20.5559C40.8848 20.1186 40.9772 20.0955 40.9772 19.8654C40.9772 19.7503 40.1455 19.6352 39.1058 19.5891L37.2345 19.5201L38.9672 17.5635C39.9144 16.4816 41.0234 15.3997 41.4162 15.1465C42.271 14.5941 42.3172 14.2027 41.6241 13.9726L41.0927 13.8114L41.6703 13.6043C41.9938 13.4892 42.5944 13.4431 43.0103 13.5122C43.6341 13.6043 43.7727 13.5582 43.7034 13.236C43.6341 12.9137 43.38 12.8446 42.2479 12.8677C38.9441 12.9137 37.5348 13.7884 40.1224 14.2027C40.8386 14.3178 41.4393 14.502 41.4393 14.6171C41.4393 14.7092 41.3238 14.8012 41.1851 14.8012C40.7462 14.8012 37.0265 18.5533 36.5645 19.474C35.8482 20.8321 36.241 21.0393 38.7131 20.5559ZM53.9611 11.6246C53.2911 11.6706 53.1294 11.7857 53.1756 12.108L53.1827 12.1549C53.2087 12.325 53.2236 12.4228 53.1854 12.4526C53.1338 12.4929 52.9851 12.4089 52.6356 12.2113L52.5749 12.177C52.136 11.9468 52.0898 11.8317 52.3439 11.6476C52.5056 11.5095 52.9446 11.3023 53.2911 11.2333L53.938 11.0721L53.4529 10.5657C53.1987 10.2665 53.0601 9.99025 53.1294 9.89817C53.3142 9.71402 55.5784 9.96723 55.9018 10.2204C56.0404 10.3355 56.2484 10.3125 56.387 10.1744C56.7104 9.85213 57.1494 10.1053 57.1494 10.6118C57.1494 10.888 57.0801 10.911 56.8722 10.7038C56.6873 10.5197 56.5256 10.5197 56.3177 10.6808C56.1329 10.8419 55.9942 10.8419 55.8787 10.6578C55.8094 10.5427 55.3704 10.4276 54.9084 10.4276C54.4818 10.4276 54.2803 10.4276 54.2393 10.5087C54.2026 10.5813 54.2948 10.719 54.4694 10.9801C54.8379 11.5538 54.8161 11.5555 53.969 11.6239L53.9611 11.6246ZM50.4502 5.50161C50.4502 5.20236 50.173 4.67293 49.8264 4.32765L49.1795 3.68312L52.645 3.82123C54.5626 3.91331 56.7344 4.12048 57.4968 4.32765C58.2592 4.5118 59.1371 4.64991 59.4606 4.64991C59.9457 4.64991 59.8533 4.55783 58.9523 4.07444C57.3812 3.26878 55.3713 2.87746 51.513 2.60124C46.8923 2.27897 44.5588 2.71634 44.9978 3.86727C45.0671 4.09746 45.4368 4.21255 45.9913 4.21255C47.1233 4.21255 48.9716 4.8801 49.5954 5.50161C50.2654 6.16915 50.4502 6.16915 50.4502 5.50161ZM39.1759 66.4553C41.0473 68.8492 43.5193 71.5654 44.6745 72.4862C45.3676 73.0386 45.9683 73.499 46.0145 73.499C46.0376 73.499 45.5293 72.4401 44.8824 71.1511C42.2717 65.9719 40.7469 60.8157 40.0307 54.8768C39.869 53.5648 39.6149 52.4599 39.3376 51.9995C38.7831 51.0787 38.7831 49.8818 39.3607 48.7538C39.6611 48.1554 39.8228 47.3957 39.8228 46.5671V45.301L38.7138 46.452C37.628 47.5799 36.5883 48.0403 36.5883 47.3497C36.5883 46.8433 38.298 44.4033 39.199 43.6437C39.9152 43.0452 40.0076 42.838 40.2386 41.0426C40.4004 39.9607 40.77 38.0501 41.0704 36.7841C41.3938 35.5181 41.5786 34.4362 41.5324 34.3901C41.3707 34.229 35.9414 40.4417 35.2021 42.4237C35.0398 42.8588 34.6014 43.6207 34.2549 44.081L33.6542 44.8495C33.6542 44.8495 33.8408 45.9255 34.0469 47.2778C34.2552 48.6441 34.353 49.5833 34.44 50.4198C34.5564 51.5389 34.6538 52.4742 34.9711 54.0021C35.3407 55.8897 35.7104 57.524 35.8028 57.6391C35.8721 57.7772 36.1724 58.8361 36.4728 60.01C37.1197 62.6111 38.2055 65.1892 39.1759 66.4553ZM132.929 88.2311L132.444 87.7477C132.444 87.7477 140.497 77.5543 141.939 73.7983C143.041 70.932 143.689 70.1192 144.563 70.1192C145.052 70.1192 145.451 70.2304 145.636 70.5067C145.959 70.99 146.271 71.5885 145.855 73.6372C145.162 76.9519 144.099 79.1387 140.911 83.8575C140.172 84.9394 139.225 86.1364 138.809 86.5507C137.838 87.4485 135.655 88.3692 134.385 88.5764C133.576 88.6915 133.345 88.6454 132.929 88.2311Z" fill="#2C2C2E"/>
<path d="M196.903 110.749C199.777 102.947 199.342 101.284 198.843 101.122C198.843 101.122 197.746 101.743 197.261 103.055C196.359 105.518 193.275 111.963 192.12 113.114C190.757 114.473 190.757 114.473 189.371 114.473C187.985 114.473 183.987 112.393 183.442 110.342C182.572 107.062 186.321 95.6662 186.414 95.0217L185.79 94.5843C185.374 94.9756 179.965 111.319 172.852 107.06C172.038 106.573 170.311 104.275 170.172 103.055C169.402 99.5103 172.934 87.1148 173.535 84.5686C174.073 82.2897 176.872 80.1746 180.314 80.1746C185.605 80.1746 184.894 84.7823 187.264 86.406C188.314 87.1255 190.04 85.821 190.572 85.7221C193.553 85.1696 194.695 85.8129 196.88 87.5406C198.566 88.8742 199.814 91.5136 201.187 92.4436C201.95 92.9602 202.76 92.2539 203.025 92.1213C204.112 91.5776 206.444 91.9832 207.091 92.4436C208.04 92.8555 210.363 95.0813 210.731 96.3758C212.395 102.243 207.14 115.25 205.157 117.69C201.873 121.729 194.028 118.552 196.903 110.749Z" fill="white"/>
<path fill-rule="evenodd" clip-rule="evenodd" d="M64.0808 89.3695C70.4111 93.3517 76.9385 95.9528 84.3778 96.6664C90.2461 97.2189 98.1583 96.4592 103.842 94.6177C108.624 93.0755 115.093 88.8031 119.414 85.1892C127.8 78.1915 133.091 67.261 135.401 55.6595C135.725 54.0252 136.218 49.917 136.195 45.8427C136.195 41.1008 134.1 28.1426 127.754 20.671C114.665 5.26079 93.1486 -1.68107 75.0659 4.2503C68.5429 6.38994 61.5978 10.2665 56.3533 15.3307C49.7457 21.7529 44.8709 30.5 42.9302 39.4313C40.8971 48.869 43.5418 60.1482 48.1394 69.4018C51.8128 76.7678 57.8659 85.4333 64.0808 89.3695ZM125.767 61.5524C121.424 74.558 110.103 84.2719 95.8712 87.2183C93.6995 87.6557 92.1978 87.8168 89.1481 87.8628C86.9995 87.9319 84.8509 87.9089 84.4119 87.8628C74.4543 86.6659 66.8764 83.0059 59.8992 76.0542C56.8495 72.9927 55.5557 71.3354 53.6612 68.0667C50.6809 62.8875 49.0868 57.5932 48.6016 51.217C46.9381 29.3722 62.6254 11.1643 84.7123 9.27677C93.376 8.54017 102.987 11.1873 110.288 16.3435C112.991 18.2541 117.889 23.088 119.414 25.3439C120.037 26.2416 126.091 35.0578 127.153 40.1219C128.516 46.7053 127.985 54.946 125.767 61.5524Z" fill="white"/>
<path fill-rule="evenodd" clip-rule="evenodd" d="M136.203 45.8426C136.203 61.2931 128.868 78.1845 119.401 85.3984C114.884 88.8401 108.982 93.0076 103.842 94.6177C96.3091 96.9772 84.3778 96.6663 84.3778 96.6663C84.3778 96.6663 96.5503 95.0451 101.061 93.2364C113.996 88.0498 121.057 80.0881 125.418 72.449C134.024 57.3697 136.203 45.4673 136.203 45.8426Z" fill="#E5E5EA"/>
<path fill-rule="evenodd" clip-rule="evenodd" d="M84.6427 85.1006C78.4741 84.3179 72.3517 82.1311 67.4076 78.8855C64.4734 76.9749 60.0376 72.4863 57.889 69.2867C54.8162 64.6829 52.7831 59.7569 51.7897 54.4626C51.0735 50.6185 51.0966 44.7026 51.8128 41.2728C52.5521 37.774 53.4993 35.1038 55.1859 31.7201C57.1497 27.8069 59.229 24.9295 62.3479 21.822C67.6617 16.5277 73.8303 13.1669 81.1772 11.5556C83.5569 11.0492 92.1745 10.6349 92.4748 11.0262C92.5441 11.1413 93.0062 11.4405 93.4914 11.6937C93.9765 11.9699 95.2703 12.9367 96.3331 13.8805C97.9272 15.2616 98.6434 16.1363 100.03 18.3001C100.977 19.7733 101.739 21.1084 101.739 21.2235C101.739 21.4767 102.479 21.9371 102.894 21.9371C103.472 21.9371 103.865 20.2107 103.98 17.1722C104.05 15.4918 104.188 14.1107 104.281 14.1107C104.604 14.1107 108.162 16.0673 109.825 17.1722C113.083 19.336 116.341 22.3744 118.743 25.551C119.829 26.9782 119.991 27.3465 119.991 28.2212C119.991 29.0269 120.222 29.6484 120.938 30.8914C122.74 34.0219 124.15 37.9581 125.004 42.3087C125.559 45.2321 125.559 50.7566 124.981 53.8181C123.41 62.2429 118.743 70.6218 112.667 75.9391C107.515 80.4278 102.04 83.19 95.5707 84.5481C93.3527 85.0315 86.6989 85.3538 84.6427 85.1006ZM68.1243 69.3558C68.3322 69.1256 68.4708 68.7803 68.4015 68.6192C68.3807 68.5708 68.0914 68.4353 67.668 68.237C66.6809 67.7746 64.9648 66.9708 64.2211 66.1331C61.2638 62.7724 60.178 60.2634 59.508 55.0841C58.8611 50.043 59.4045 46.635 60.5707 41.1578C61.1396 38.4859 62.6517 36.2789 63.5924 34.9057C64.2321 33.9721 64.6076 33.424 64.2429 33.3774C63.3418 33.2393 63.2032 33.3084 62.256 34.2061C60.2229 36.1397 59.2987 37.682 58.3284 40.6514C56.8267 45.3012 56.5365 57.8672 59.508 63.532C62.4795 69.1969 67.5929 69.9543 68.1243 69.3558ZM100.977 50.02C100.585 53.5959 98.9208 58.7672 96.9801 61.023C96.079 62.0819 92.7716 63.9004 89.9797 63.5321C87.2831 63.1763 85.1742 61.9207 83.3721 59.2275C81.8242 56.9026 81.0248 54.0806 80.4842 50.5265C79.5508 44.3891 83.6263 37.2446 85.3821 35.4722C87.1611 33.6537 88.4318 33.0092 90.049 32.9861C91.6201 32.9861 92.6366 33.3314 94.2308 34.4593C97.1418 36.485 101.739 43.0714 100.977 50.02ZM69.8336 30.9835C70.2956 30.4541 70.3649 30.2009 70.2263 29.2111C70.1339 28.2903 69.9491 27.922 69.4639 27.5307C68.6091 26.8401 67.5463 26.8401 66.7608 27.5767C66.2063 28.1062 66.137 28.2903 66.2063 29.5563C66.2756 30.9145 66.3218 31.0065 67.0843 31.4209C68.1008 31.9733 69.0943 31.8122 69.8336 30.9835ZM84.2503 16.7809C80.0916 19.7504 78.2896 20.9704 76.4182 22.1213C74.9396 23.0421 74.4775 23.0651 74.4775 22.2364C74.4775 21.799 74.801 21.3156 75.6327 20.556L76.7878 19.4972L74.5468 19.1979C72.0285 18.8757 69.5796 18.1851 69.0482 17.6557C68.1703 16.7579 68.9327 16.5508 71.4278 17.0111C72.5368 17.1953 74.6854 17.4255 76.2103 17.4715L78.9827 17.5866L80.9927 16.1364C85.4054 12.9598 89.9799 11.1644 92.1747 11.7168C93.5378 12.0391 93.3761 12.4074 91.8282 12.5915C90.0492 12.7987 88.9634 13.3972 84.2503 16.7809Z" fill="white"/>
<path d="M90.1875 60.3783C90.1875 60.2632 90.3262 60.1481 90.511 60.1481C90.6958 60.1481 90.9268 60.2632 90.9962 60.3783C91.0655 60.5164 90.9268 60.6085 90.6727 60.6085C90.3955 60.6085 90.1875 60.5164 90.1875 60.3783Z" fill="white"/>
<path d="M91.5736 60.1711C91.5736 59.9179 92.1512 59.6877 92.7981 59.6877C93.3064 59.7108 93.3064 59.7108 92.8674 60.033C92.3592 60.4243 91.5736 60.4934 91.5736 60.1711Z" fill="white"/>
<path d="M87.993 59.5727C87.9237 59.3886 87.8313 59.0663 87.762 58.8821C87.6927 58.652 87.8082 58.5369 88.1085 58.5369C88.3627 58.5369 88.5706 58.675 88.5706 58.8591C88.5706 59.0433 88.6399 59.3425 88.7092 59.5497C88.8016 59.8029 88.7323 59.918 88.4782 59.918C88.2703 59.918 88.0392 59.7569 87.993 59.5727Z" fill="white"/>
<path d="M89.2172 58.9972C89.1017 58.3067 89.3559 58.0765 90.1876 58.0765C90.4417 58.0765 90.6497 58.3067 90.7421 58.698C90.9269 59.3655 90.6266 59.6878 89.8179 59.6878C89.4483 59.6878 89.2866 59.5267 89.2172 58.9972Z" fill="white"/>
<path d="M86.8609 59.1124C86.422 58.7671 86.422 58.7671 86.9071 58.7671C87.2075 58.7671 87.4154 58.9052 87.4154 59.1124C87.4154 59.5267 87.4154 59.5267 86.8609 59.1124Z" fill="white"/>
<path d="M91.5047 59.0894C91.2044 58.7901 91.343 57.8924 91.7127 57.7543C92.3827 57.5011 92.683 57.6162 92.8216 58.2147C92.914 58.5599 92.9603 58.8592 92.914 58.8822C92.7292 59.0894 91.6434 59.2275 91.5047 59.0894Z" fill="white"/>
<path d="M93.5611 58.6059C93.4918 58.5369 93.4225 58.2376 93.4225 57.9614C93.4225 57.5701 93.6073 57.4089 94.1618 57.2938C94.647 57.2018 94.9473 57.2478 95.0859 57.432C95.317 57.8003 95.317 58.2606 95.109 58.3757C94.6932 58.6059 93.7228 58.744 93.5611 58.6059Z" fill="white"/>
<path d="M85.7983 57.8922C85.7983 57.616 86.0062 57.3858 86.3066 57.3168C86.9073 57.1556 86.8842 57.1326 86.9997 57.7311C87.0459 58.0764 86.9304 58.2145 86.4452 58.2605C85.9369 58.3296 85.7983 58.2375 85.7983 57.8922Z" fill="white"/>
<path d="M87.5537 57.9153C87.2303 57.57 87.4382 56.9255 87.8772 56.9255C88.1775 56.9255 88.3392 57.0866 88.3392 57.3628C88.3392 57.8002 87.8079 58.1685 87.5537 57.9153Z" fill="white"/>
<path d="M88.9401 57.2247C88.7553 56.7874 89.148 56.4651 89.9105 56.4651C90.257 56.4651 90.4187 56.6032 90.4187 56.9024C90.4187 57.1557 90.2108 57.3858 89.9105 57.4779C89.148 57.6621 89.1018 57.6621 88.9401 57.2247Z" fill="white"/>
<path d="M95.6176 57.1557C95.6869 57.0406 95.8024 56.9255 95.8717 56.9255C95.9411 56.9255 95.9179 57.0406 95.8486 57.1557C95.7793 57.2938 95.6638 57.3858 95.5945 57.3858C95.5252 57.3858 95.5483 57.2938 95.6176 57.1557Z" fill="white"/>
<path d="M91.0198 56.7643C90.8349 56.304 91.066 56.0738 91.8053 55.9587C92.2212 55.9126 92.406 56.0047 92.4522 56.327C92.6139 57.0866 91.297 57.5009 91.0198 56.7643Z" fill="white"/>
<path d="M85.4745 56.3731C85.2666 55.6134 85.3128 55.5444 85.9135 55.5444C86.237 55.5444 86.4911 55.6364 86.4911 55.7515C86.4911 55.8666 86.5604 56.1198 86.6297 56.304C86.699 56.5342 86.5604 56.6723 86.1676 56.7414C85.7287 56.8334 85.567 56.7414 85.4745 56.3731Z" fill="white"/>
<path d="M93.1912 56.1199C93.1912 55.7055 93.3529 55.5214 93.7919 55.4063C94.4388 55.2451 94.8085 55.5674 94.8085 56.304C94.8085 56.6033 94.6236 56.6953 93.9998 56.6953C93.2836 56.6953 93.1912 56.6263 93.1912 56.1199Z" fill="white"/>
<path d="M84.7816 56.1199C84.7122 55.9357 84.7585 55.7746 84.874 55.7746C85.0126 55.7746 85.105 55.9357 85.105 56.1199C85.105 56.304 85.0588 56.4652 85.0126 56.4652C84.9664 56.4652 84.874 56.304 84.7816 56.1199Z" fill="white"/>
<path d="M87.1154 56.3041C86.792 56.0049 86.9768 55.3603 87.3927 55.2452C87.6468 55.1762 87.9009 55.1992 87.9703 55.2683C88.2475 55.5215 88.0858 56.189 87.7392 56.3271C87.3003 56.4883 87.3003 56.4883 87.1154 56.3041Z" fill="white"/>
<path d="M95.3633 56.1428C95.1092 55.4753 95.3864 54.9689 96.0333 54.8998C96.5185 54.8308 96.6571 54.9229 96.6571 55.2912C96.6571 56.0508 96.403 56.4651 95.9409 56.4651C95.6868 56.4651 95.4326 56.327 95.3633 56.1428Z" fill="white"/>
<path d="M88.7322 55.8436C88.455 55.5904 88.5474 55.13 88.9402 54.9919C89.3791 54.8308 90.3033 55.2912 90.0491 55.5444C89.7257 55.8206 88.894 56.0278 88.7322 55.8436Z" fill="white"/>
<path d="M90.7425 55.2682C90.5346 54.9459 91.2739 54.3935 91.8746 54.3935C92.1519 54.3935 92.2674 54.5316 92.2212 54.7848C92.1287 55.2452 90.9505 55.6135 90.7425 55.2682Z" fill="white"/>
<path d="M84.4116 55.1071C84.4116 54.992 84.3423 54.7388 84.273 54.5316C84.2037 54.3245 84.2268 54.1633 84.3654 54.1633C84.6657 54.1633 84.8968 55.038 84.6195 55.2222C84.504 55.2913 84.4116 55.2452 84.4116 55.1071Z" fill="white"/>
<path d="M85.0357 54.5776C84.8971 54.0712 85.1744 53.7029 85.7058 53.7029C86.0061 53.7029 86.3064 54.6006 86.1216 54.8999C85.8675 55.2912 85.1513 55.061 85.0357 54.5776Z" fill="white"/>
<path d="M86.6532 54.6928C86.3067 54.3475 86.5146 53.5188 86.9767 53.4037C87.3232 53.3116 87.5081 53.4267 87.6929 53.8411C87.8315 54.1403 87.9008 54.4396 87.8546 54.4856C87.6236 54.6928 86.7919 54.8539 86.6532 54.6928Z" fill="white"/>
<path d="M92.8904 54.6928C92.59 54.3935 92.7286 54.2094 93.4217 53.9562C93.9993 53.772 94.1611 53.795 94.2766 54.0712C94.4845 54.6237 93.3293 55.1531 92.8904 54.6928Z" fill="white"/>
<path d="M94.9236 54.1633C94.6925 53.795 95.016 53.4727 95.6167 53.4727C96.3329 53.4727 96.5408 54.0712 95.8939 54.2554C95.2008 54.4395 95.0853 54.4165 94.9236 54.1633Z" fill="white"/>
<path d="M96.8878 53.6108C96.8878 53.2656 97.3036 52.8973 97.4885 53.0814C97.6502 53.2425 97.3267 53.9331 97.0957 53.9331C96.9802 53.9331 96.8878 53.795 96.8878 53.6108Z" fill="white"/>
<path d="M84.1114 53.3115C84.019 53.2425 83.9497 52.9432 83.9728 52.69C83.9728 52.2527 83.9959 52.2527 84.2039 52.7591C84.4349 53.3115 84.3887 53.5878 84.1114 53.3115Z" fill="white"/>
<path d="M84.5506 52.9663C84.3427 52.1607 84.3658 52.0916 84.9665 52.0916C85.6365 52.0916 86.0524 52.9433 85.5441 53.2656C85.0127 53.5878 84.7124 53.4958 84.5506 52.9663Z" fill="white"/>
<path d="M92.4976 53.4268C92.4976 53.3577 92.6131 52.9894 92.7517 52.5751C93.0752 51.6543 93.7914 51.6083 93.9531 52.506C94.0224 52.8513 94.0455 53.1505 94.0224 53.1736C93.9069 53.3117 92.4976 53.5188 92.4976 53.4268Z" fill="white"/>
<path d="M86.1913 52.8512C86.0989 52.7821 86.0296 52.5059 86.0296 52.2527C86.0296 51.8844 86.0989 51.8614 86.3761 52.0915C86.561 52.2527 86.7227 52.5289 86.7227 52.69C86.7227 53.0353 86.4454 53.1274 86.1913 52.8512Z" fill="white"/>
<path d="M94.5087 52.3908C94.3701 51.6772 94.6704 51.3549 95.3866 51.447C95.7332 51.4931 95.8487 51.7002 95.8487 52.2066C95.8487 52.7821 95.7563 52.9202 95.248 52.9663C94.7397 53.0353 94.6242 52.9202 94.5087 52.3908Z" fill="white"/>
<path d="M96.7726 52.483C96.4723 51.5622 96.5647 51.286 97.1885 51.2169C97.743 51.1479 97.8123 51.2169 97.8123 51.8154C97.8123 52.3218 97.6737 52.529 97.3271 52.6211C97.073 52.6901 96.8188 52.6211 96.7726 52.483Z" fill="white"/>
<path d="M83.7646 51.1709C83.7646 50.7336 83.8109 50.5494 83.8802 50.7796C83.9264 50.9868 83.9264 51.3551 83.8802 51.5853C83.8109 51.7924 83.7646 51.6083 83.7646 51.1709Z" fill="white"/>
<path d="M84.3422 51.4701C84.0418 51.1939 84.1804 50.2961 84.5501 50.158C85.0815 49.9509 85.3356 50.2041 85.3356 50.9637C85.3356 51.4471 85.2201 51.6312 84.9197 51.6312C84.6887 51.6312 84.4115 51.5622 84.3422 51.4701Z" fill="white"/>
<path d="M85.7286 50.8487C85.6362 50.5034 85.5899 50.1351 85.6824 50.066C85.9134 49.8358 86.052 50.2041 85.9827 50.8717L85.9134 51.5162L85.7286 50.8487Z" fill="white"/>
<path d="M93.1912 50.6874C93.1912 50.4342 93.3067 50.2961 93.4223 50.3651C93.5609 50.4342 93.6533 50.6644 93.6533 50.8485C93.6533 51.0327 93.5609 51.1708 93.4223 51.1708C93.3067 51.1708 93.1912 50.9636 93.1912 50.6874Z" fill="white"/>
<path d="M94.2307 50.9867C93.9073 50.6414 94.1614 50.0199 94.6928 49.8818C95.3628 49.7206 95.3859 49.7206 95.5938 50.3882C95.7324 50.8025 95.64 50.8946 95.0393 50.9867C94.6697 51.0557 94.3 51.0327 94.2307 50.9867Z" fill="white"/>
<path d="M96.356 50.5493C96.1019 50.3191 96.1712 49.5595 96.4253 49.5595C96.564 49.5595 96.6564 49.4674 96.6564 49.3293C96.6564 49.2142 96.5178 49.0991 96.3329 49.0991C95.9402 49.0991 95.6167 47.9712 95.9402 47.6489C96.356 47.2346 96.8181 47.672 97.0953 48.7999C97.2571 49.3984 97.4188 50.0889 97.4881 50.3191C97.5805 50.6184 97.4881 50.7104 97.0491 50.7104C96.7488 50.7104 96.4253 50.6414 96.356 50.5493Z" fill="white"/>
<path d="M97.6037 49.3293C97.442 48.6387 97.0261 47.2576 96.7258 46.2448C96.2637 44.7716 96.2175 44.4033 96.4716 44.2421C96.6334 44.127 96.8413 44.035 96.9106 44.035C97.1647 44.035 98.0889 48.7538 97.9965 49.6746L97.9272 50.5953L97.6037 49.3293Z" fill="white"/>
<path d="M83.5336 49.2142C83.5336 48.8459 83.5798 48.7078 83.6491 48.938C83.6953 49.1451 83.6953 49.4674 83.6491 49.6285C83.5798 49.7667 83.5336 49.6055 83.5336 49.2142Z" fill="white"/>
<path d="M83.9964 49.1681C84.0888 48.3625 84.7588 48.1783 84.9436 48.9149C85.1053 49.5134 85.1515 49.4444 84.4584 49.6746C83.9733 49.8127 83.927 49.7666 83.9964 49.1681Z" fill="white"/>
<path d="M93.7454 48.961C93.5605 48.2934 93.9533 47.9021 94.6926 47.9942C95.2471 48.0632 95.455 49.053 94.9929 49.3523C94.4154 49.7206 93.884 49.5594 93.7454 48.961Z" fill="white"/>
<path d="M85.336 48.7768C85.336 48.3855 85.4515 48.1783 85.7056 48.1783C85.9367 48.1783 86.0291 48.3395 85.9829 48.6848C85.8674 49.4214 85.336 49.4904 85.336 48.7768Z" fill="white"/>
<path d="M83.28 47.8101C83.28 47.5569 83.3493 47.4879 83.4186 47.672C83.4879 47.8332 83.4648 48.0403 83.3955 48.1094C83.3262 48.2015 83.2569 48.0634 83.28 47.8101Z" fill="white"/>
<path d="M83.7186 47.741C83.7186 47.3957 83.8572 47.2576 84.2038 47.2576C84.5272 47.2576 84.6427 47.3727 84.5965 47.6489C84.481 48.2474 83.7186 48.3165 83.7186 47.741Z" fill="white"/>
<path d="M84.9894 47.5339C84.8277 47.1196 84.8277 47.1196 85.5207 46.9354C85.9366 46.7973 86.029 46.8663 86.029 47.2116C86.029 47.7641 85.1973 48.0403 84.9894 47.5339Z" fill="white"/>
<path d="M93.3537 47.2116C93.192 46.6361 93.4923 46.3369 94.3009 46.3369C94.6937 46.3369 94.8092 46.475 94.8092 46.9123C94.8092 47.2576 94.6706 47.4878 94.4858 47.4878C94.3009 47.4878 94.0006 47.5568 93.8158 47.6259C93.6078 47.695 93.4461 47.5568 93.3537 47.2116Z" fill="white"/>
<path d="M95.3629 46.6821C95.1781 46.2217 95.4553 45.8765 95.9867 45.8765C96.3102 45.8765 96.4257 46.0376 96.4257 46.4519C96.4257 46.8663 96.3102 47.0274 95.9636 47.0274C95.7095 47.0274 95.4322 46.8663 95.3629 46.6821Z" fill="white"/>
<path d="M83.4883 46.3599C83.4883 45.8765 84.0196 45.324 84.2507 45.5772C84.3431 45.6463 84.4124 45.9685 84.4124 46.2678C84.4124 46.6361 84.2738 46.7972 83.9503 46.7972C83.65 46.7972 83.4883 46.6361 83.4883 46.3599Z" fill="white"/>
<path d="M84.7582 46.0836C84.5734 45.5082 84.7813 45.255 85.5668 45.1399C86.283 45.0478 86.5141 45.8074 85.8903 46.2678C85.2896 46.7051 84.9199 46.6361 84.7582 46.0836Z" fill="white"/>
<path d="M93.1216 45.9456C92.9599 45.8075 92.8906 44.9558 93.0292 44.9558C93.0523 44.9558 93.3988 44.8637 93.8147 44.7486C94.5078 44.5414 94.554 44.5645 94.5309 45.186C94.5078 45.6464 94.3692 45.8765 94.0226 45.9686C93.3988 46.1298 93.3064 46.1298 93.1216 45.9456Z" fill="white"/>
<path d="M92.2673 45.4169C92.2673 45.2552 92.3366 45.1858 92.429 45.2552C92.4983 45.3476 92.4983 45.4862 92.429 45.5786C92.3366 45.6479 92.2673 45.5786 92.2673 45.4169Z" fill="white"/>
<path d="M94.8545 45.0478C94.9238 44.6564 95.64 44.081 95.8017 44.2651C95.871 44.3342 95.9865 44.6104 96.0559 44.9096C96.2176 45.37 96.1483 45.4161 95.5014 45.4161C94.9469 45.4161 94.7852 45.324 94.8545 45.0478Z" fill="white"/>
<path d="M83.7186 45.0248C83.7186 44.9097 83.8341 44.6796 83.9496 44.4954C84.1345 44.2192 84.1807 44.2422 84.1807 44.6796C84.1807 44.9558 84.0883 45.186 83.9496 45.186C83.8341 45.186 83.7186 45.1169 83.7186 45.0248Z" fill="white"/>
<path d="M84.4122 44.5185C84.4122 43.874 84.8974 43.6668 85.267 44.1502C85.4981 44.4955 85.4981 44.6106 85.267 44.7717C84.7819 45.0709 84.4122 44.9789 84.4122 44.5185Z" fill="white"/>
<path d="M91.4352 44.2191C91.0193 43.7588 91.0193 43.7357 91.4121 43.8739C91.6431 43.9659 91.9435 44.035 92.059 44.035C92.1745 44.035 92.2669 44.1961 92.2669 44.3803C92.2669 44.8637 91.9435 44.8176 91.4352 44.2191Z" fill="white"/>
<path d="M86.4687 44.1961C85.4752 43.4365 85.3366 41.7331 86.2607 41.7331C86.8845 41.7331 87.4621 42.6999 87.3697 43.5976C87.3004 44.4263 87.0231 44.6104 86.4687 44.1961Z" fill="white"/>
<path d="M92.7991 44.3344C92.8915 44.2651 93.0301 44.2651 93.1225 44.3344C93.1918 44.4268 93.1225 44.4961 92.9608 44.4961C92.7991 44.4961 92.7298 44.4268 92.7991 44.3344Z" fill="white"/>
<path d="M96.287 43.4365C96.3563 43.2294 96.4257 43.0222 96.4257 42.9762C96.4257 42.9301 96.5412 42.8841 96.6567 42.8841C96.7953 42.8841 96.8877 43.0913 96.8877 43.3445C96.8877 43.6207 96.726 43.8048 96.5181 43.8048C96.2639 43.8048 96.1946 43.6898 96.287 43.4365Z" fill="white"/>
<path d="M84.1809 43.3675C84.1809 42.838 84.6661 41.9633 84.9433 41.9633C85.4285 41.9633 85.082 43.4365 84.5737 43.5286C84.3658 43.5746 84.1809 43.5056 84.1809 43.3675Z" fill="white"/>
<path d="M89.3792 43.1143L88.6861 42.9532L89.3099 42.792C89.9568 42.6079 90.4188 42.746 90.4188 43.1373C90.4188 43.3675 90.3957 43.3675 89.3792 43.1143Z" fill="white"/>
<path d="M88.5709 42.0094C88.5709 41.0657 89.1023 40.9275 89.5875 41.7562C89.9109 42.3087 89.934 42.4238 89.6337 42.4238C89.4488 42.4238 89.1485 42.4928 88.9406 42.5619C88.6633 42.677 88.5709 42.5389 88.5709 42.0094Z" fill="white"/>
<path d="M92.5906 42.3316C91.551 41.8712 90.881 40.6512 90.881 39.2011C90.881 38.1652 90.9734 37.912 91.5972 37.3365C91.9899 36.9682 92.3827 36.669 92.4982 36.669C93.0065 36.669 94.8779 38.4414 95.5017 39.5463L96.2179 40.8124L95.4555 41.618C94.5775 42.5388 93.6072 42.792 92.5906 42.3316Z" fill="white"/>
<path d="M87.7618 41.7332C87.6925 41.6181 87.7387 41.503 87.8543 41.503C87.9929 41.503 88.1084 41.6181 88.1084 41.7332C88.1084 41.8713 88.0622 41.9634 88.016 41.9634C87.9467 41.9634 87.8312 41.8713 87.7618 41.7332Z" fill="white"/>
<path d="M84.7352 41.3648C84.8045 41.1577 84.8738 40.9505 84.8738 40.9045C84.8738 40.8584 85.0817 40.8124 85.3358 40.8124C85.9134 40.8124 85.9365 41.1807 85.3589 41.5029C84.7352 41.8252 84.5734 41.8022 84.7352 41.3648Z" fill="white"/>
<path d="M86.5608 41.0886C86.0294 41.0196 85.8677 40.7203 86.2142 40.5131C86.3066 40.4441 86.7225 40.329 87.1384 40.2369C87.7622 40.0988 87.8777 40.1448 87.8777 40.5362C87.8777 41.0196 87.3925 41.2267 86.5608 41.0886Z" fill="white"/>
<path d="M88.3398 40.306C88.3398 40.0298 88.3629 39.8686 88.4092 39.9147C88.4323 39.9607 88.6171 40.1909 88.7788 40.4211C89.0561 40.7433 89.033 40.8124 88.7095 40.8124C88.4785 40.8124 88.3398 40.6282 88.3398 40.306Z" fill="white"/>
<path d="M85.1047 40.1449C85.1047 40.0068 85.2202 39.8456 85.3357 39.7766C85.4744 39.7075 85.5668 39.7996 85.5668 39.9838C85.5668 40.1909 85.4744 40.3521 85.3357 40.3521C85.2202 40.3521 85.1047 40.26 85.1047 40.1449Z" fill="white"/>
<path d="M85.9597 39.7996C85.7748 39.3392 87.4152 38.8328 87.6924 39.2702C87.9004 39.6385 87.6924 39.7996 86.8145 39.9838C86.2831 40.0989 86.0521 40.0528 85.9597 39.7996Z" fill="white"/>
<path d="M88.1316 39.0629C88.1316 38.8097 88.2009 38.7406 88.2702 38.9248C88.3395 39.0859 88.3164 39.2931 88.2471 39.3621C88.1778 39.4542 88.1085 39.3161 88.1316 39.0629Z" fill="white"/>
<path d="M86.1683 38.6947C86.4456 38.1883 87.2542 37.3596 87.4621 37.3596C87.6932 37.3596 87.7163 38.4415 87.4852 38.5796C87.3697 38.6257 87.0001 38.7408 86.6535 38.8328C86.1452 38.9479 86.0297 38.9249 86.1683 38.6947Z" fill="white"/>
<path d="M88.0162 38.1653C87.7621 37.4747 87.8776 37.1754 88.4321 37.0834C89.0097 36.9683 89.0097 36.9683 88.64 37.6819C88.178 38.6026 88.2011 38.6026 88.0162 38.1653Z" fill="white"/>
<path d="M87.8773 36.784C87.8773 36.738 88.3394 36.4157 88.9169 36.0935C89.6101 35.6791 90.0952 35.541 90.4418 35.6331C90.8576 35.7712 90.7421 35.8633 89.7256 36.3467C88.5935 36.8531 87.8773 37.0372 87.8773 36.784Z" fill="white"/>
<path d="M100.7 16.3895C100.076 15.4918 98.7592 14.0416 97.812 13.1669C96.8648 12.2922 96.241 11.5786 96.4258 11.5786C96.9341 11.5786 100.815 12.6375 101.786 13.0518C102.594 13.3971 102.618 13.4431 102.41 14.1567C102.294 14.5711 102.202 15.6069 102.202 16.4586C102.202 17.3333 102.132 18.0239 102.04 18.0239C101.924 18.0239 101.347 17.2873 100.7 16.3895Z" fill="white"/>
<path d="M53.6843 86.1133C52.7371 85.6299 52.5291 85.3537 51.3278 82.9827C49.595 79.622 49.5488 78.8394 51.1891 80.7499C51.836 81.5095 53.3378 83.0748 54.516 84.2258C56.526 86.1593 56.6185 86.2974 55.9485 86.2054C55.4633 86.1363 55.2785 86.1823 55.394 86.3665C55.6712 86.7808 54.7933 86.6657 53.6843 86.1133Z" fill="white"/>
<path fill-rule="evenodd" clip-rule="evenodd" d="M92.4029 128.052C92.2112 127.598 92.4249 127.075 92.8803 126.884L93.3781 126.674C98.2176 124.611 100.995 123.371 102.883 121.403C104.77 119.435 104.996 116.545 105.351 114.786C105.448 114.303 106.545 115.151 107.029 115.248C107.514 115.345 107.828 115.815 107.73 116.298C107.304 118.412 106.156 120.428 104.308 122.342C102.465 124.25 98.899 126.294 93.5747 128.527C93.1193 128.718 92.5946 128.505 92.4029 128.052Z" fill="#2C2C2E"/>
<path fill-rule="evenodd" clip-rule="evenodd" d="M114.289 36.2066C114.713 35.9548 115.262 36.0936 115.515 36.5167C118.046 40.7525 119.402 45.5946 119.402 50.6323C119.402 65.8945 106.984 78.2669 91.6653 78.2669C87.5949 78.2669 83.6469 77.3922 80.0317 75.7257C79.5833 75.519 77.8891 73.8728 79.5954 74.5423C81.3016 75.2118 87.9032 76.7145 91.7129 76.7145C106.043 76.7145 116.181 64.9098 116.181 50.6323C116.181 45.9178 114.289 41.7332 113.977 37.4286C113.941 36.9296 113.864 36.4585 114.289 36.2066Z" fill="#2C2C2E"/>
<path fill-rule="evenodd" clip-rule="evenodd" d="M25.6774 103.675C25.9936 103.297 26.5578 102.532 26.9375 102.847C28.4951 104.14 30.1572 105.638 31.9351 105.927C33.7853 106.227 35.9802 106.227 38.517 105.922C39.0075 105.862 39.4534 106.211 39.5127 106.699C39.5721 107.188 39.2226 107.632 38.732 107.691C36.0381 108.016 33.6774 108.016 31.647 107.686C29.5444 107.344 27.589 106.422 25.7922 104.93C25.4126 104.615 25.3611 104.053 25.6774 103.675Z" fill="#2C2C2E"/>
<path d="M44.6746 72.4862C43.5194 71.5655 41.0473 68.8493 39.176 66.4553C38.2056 65.1893 37.1198 62.6112 36.4729 60.01C36.1725 58.8361 35.8722 57.7772 35.8029 57.6391C35.7104 57.524 35.3408 55.8897 34.9711 54.0021C34.4166 51.332 34.5339 50.4717 34.047 47.2778C33.8408 45.9255 33.6542 44.8495 33.6542 44.8495L34.2549 44.0811C34.6015 43.6207 35.0398 42.8589 35.2022 42.4237C35.9415 40.4417 41.3708 34.229 41.5325 34.3902C41.5787 34.4362 41.3939 35.5181 41.0704 36.7841C40.7701 38.0501 40.4004 39.9607 40.2387 41.0426C40.0077 42.838 39.9153 43.0452 39.1991 43.6437C38.298 44.4033 36.5884 46.8433 36.5884 47.3497C36.5884 48.0403 37.628 47.5799 38.7139 46.452L39.8229 45.3011V46.5671C39.8229 47.3958 39.6611 48.1554 39.3608 48.7539C38.7832 49.8818 38.7832 51.0788 39.3377 51.9995C39.6149 52.4599 39.8691 53.5648 40.0308 54.8769C40.747 60.8157 42.2718 65.9719 44.8825 71.1511C45.5294 72.4402 46.0377 73.499 46.0146 73.499C45.9684 73.499 45.3677 73.0387 44.6746 72.4862Z" fill="white"/>
<path fill-rule="evenodd" clip-rule="evenodd" d="M140.808 86.6888L142.471 87.4254C142.816 87.584 146.621 89.4056 151.192 91.5938C158.561 95.1216 167.92 99.6023 167.978 99.6023C168.07 99.6023 168.503 98.6035 168.601 97.4385C168.832 94.9295 169.687 91.5227 170.681 89.1518C171.143 88.0929 171.512 86.7696 171.512 86.6545C171.512 86.6019 171.137 86.451 170.522 86.2039C169.79 85.9097 168.719 85.4793 167.539 84.9163C161.716 82.1311 150.326 76.4454 148.917 75.5937C147.531 74.7881 147.254 74.719 147.254 75.2485C147.254 75.939 145.844 79.1386 144.759 80.865C144.181 81.8088 143.049 83.5122 142.24 84.6401L140.808 86.6888ZM167.584 95.4589C168.247 95.8414 167.099 96.4026 166.822 96.4947C165.189 96.6328 163.268 96.327 161.693 95.4128C160.87 94.8311 154.387 91.2427 150.086 88.8623C148.12 87.7741 146.61 86.9383 146.306 86.7578C145.336 86.1823 144.412 85.5608 144.25 85.3767C143.765 84.7551 144.227 84.4789 145.59 84.594C146.409 84.6632 166.153 94.6325 167.584 95.4589Z" fill="white"/>
<path d="M124.219 88.7605C123.618 88.5534 122.971 88.093 122.555 87.5636L121.862 86.7119L124.311 84.2949C128.077 80.6119 130.85 76.5868 133.345 72.0982C134.176 70.6019 136.649 64.5678 136.949 63.9003C137.411 62.9335 137.758 62.5652 138.751 62.0127C139.929 61.3222 141.269 61.092 141.847 61.4833C142.956 62.2199 142.956 64.5448 141.847 68.5501C140.622 72.9466 138.982 76.1002 135.586 80.6349C135.054 81.3255 134.061 82.6836 133.345 83.6273C131.427 86.1594 130.18 87.3794 128.493 88.3232C126.83 89.2439 125.859 89.359 124.219 88.7605Z" fill="white"/>
<path d="M132.929 88.2311L132.444 87.7477C132.444 87.7477 140.497 77.5542 141.939 73.7983C143.041 70.932 143.689 70.1192 144.563 70.1192C145.052 70.1192 145.451 70.2304 145.636 70.5066C145.959 70.99 146.271 71.5885 145.855 73.6372C145.162 76.9519 144.099 79.1387 140.911 83.8575C140.172 84.9394 139.225 86.1364 138.809 86.5507C137.838 87.4484 135.655 88.3692 134.385 88.5764C133.576 88.6914 133.345 88.6454 132.929 88.2311Z" fill="white"/>
<path fill-rule="evenodd" clip-rule="evenodd" d="M146.455 77.5721C146.921 76.51 147.253 75.5837 147.253 75.2485C147.253 74.719 147.53 74.7881 148.917 75.5937C150.326 76.4454 161.716 82.1311 167.538 84.9163C169.71 85.9522 171.512 86.5394 171.512 86.6545C171.512 86.7696 145.961 78.6981 146.455 77.5721Z" fill="#E5E5EA"/>
<path fill-rule="evenodd" clip-rule="evenodd" d="M67.4077 78.8854C64.4735 76.9749 60.0377 72.4862 57.8891 69.2866C54.8163 64.6828 52.7832 59.7568 51.7898 54.4625C51.0735 50.6184 51.0966 44.7026 51.8129 41.2728C52.5522 37.7739 53.4994 35.1037 55.186 31.72C57.1497 27.8068 59.2291 24.9295 62.348 21.8219C65.4066 18.7746 51.8129 31.3766 55.186 53.9244C57.8891 72.8194 69.506 80.2629 67.4077 78.8854Z" fill="#E5E5EA"/>
</svg>
