<svg width="24" height="24" viewBox="0 0 24 24" fill="none" xmlns="http://www.w3.org/2000/svg">
<path d="M22.2656 2.71127C22.5585 2.41838 22.5585 1.9435 22.2656 1.65061C21.9727 1.35772 21.4978 1.35772 21.2049 1.65061L19.2217 3.63386L17.2384 1.65061C16.9455 1.35772 16.4707 1.35772 16.1778 1.65061C15.8849 1.9435 15.8849 2.41838 16.1778 2.71127L18.161 4.69452L16.1778 6.67777C15.8849 6.97066 15.8849 7.44554 16.1778 7.73843C16.4707 8.03132 16.9455 8.03132 17.2384 7.73843L19.2217 5.75518L21.2049 7.73843C21.4978 8.03132 21.9727 8.03132 22.2656 7.73843C22.5585 7.44554 22.5585 6.97066 22.2656 6.67777L20.2823 4.69452L22.2656 2.71127Z" fill="#1F2328"/>
<path fill-rule="evenodd" clip-rule="evenodd" d="M4.75 1.50001C2.95507 1.50001 1.5 2.95508 1.5 4.75001C1.5 6.28853 2.56906 7.57737 4.00486 7.91419C4.00165 7.94235 4 7.97099 4 8.00001L4 16C4 16.029 4.00165 16.0577 4.00486 16.0858C2.56906 16.4226 1.5 17.7115 1.5 19.25C1.5 21.0449 2.95507 22.5 4.75 22.5C6.54493 22.5 8 21.0449 8 19.25C8 17.7115 6.93094 16.4226 5.49514 16.0858C5.49835 16.0577 5.5 16.029 5.5 16L5.5 8.00001C5.5 7.97099 5.49835 7.94235 5.49514 7.91419C6.93094 7.57737 8 6.28853 8 4.75001C8 2.95508 6.54493 1.50001 4.75 1.50001ZM3 4.75001C3 3.78351 3.7835 3.00001 4.75 3.00001C5.7165 3.00001 6.5 3.78351 6.5 4.75001C6.5 5.71651 5.7165 6.50001 4.75 6.50001C3.7835 6.50001 3 5.71651 3 4.75001ZM3 19.25C3 18.2835 3.7835 17.5 4.75 17.5C5.7165 17.5 6.5 18.2835 6.5 19.25C6.5 20.2165 5.7165 21 4.75 21C3.7835 21 3 20.2165 3 19.25Z" fill="#1F2328"/>
<path fill-rule="evenodd" clip-rule="evenodd" d="M16 19.25C16 17.7132 17.0666 16.4256 18.5 16.087V9.62501C18.5 9.21079 18.8358 8.87501 19.25 8.87501C19.6642 8.87501 20 9.21079 20 9.62501V16.087C21.4333 16.4256 22.5 17.7132 22.5 19.25C22.5 21.0449 21.0449 22.5 19.25 22.5C17.4551 22.5 16 21.0449 16 19.25ZM19.25 17.5C18.2835 17.5 17.5 18.2835 17.5 19.25C17.5 20.2165 18.2835 21 19.25 21C20.2165 21 21 20.2165 21 19.25C21 18.2835 20.2165 17.5 19.25 17.5Z" fill="#1F2328"/>
</svg>
