<svg width="24" height="24" viewBox="0 0 24 24" fill="none" xmlns="http://www.w3.org/2000/svg">
<path fill-rule="evenodd" clip-rule="evenodd" d="M2.5 19.25C2.5 21.0449 3.95507 22.5 5.75 22.5C7.54493 22.5 9 21.0449 9 19.25C9 17.7115 7.93094 16.4226 6.49514 16.0858C6.49835 16.0577 6.5 16.029 6.5 16L6.5 11.493C7.73747 13.0223 9.62955 14 11.75 14H15.087C15.4255 15.4334 16.7132 16.5 18.25 16.5C20.0449 16.5 21.5 15.0449 21.5 13.25C21.5 11.4551 20.0449 10 18.25 10C16.7132 10 15.4255 11.0666 15.087 12.5H11.75C9.07172 12.5 6.86185 10.4945 6.54025 7.90325C7.95327 7.55027 9 6.27237 9 4.75C9 2.95507 7.54493 1.5 5.75 1.5C3.95507 1.5 2.5 2.95507 2.5 4.75C2.5 6.28853 3.56906 7.57736 5.00486 7.91418C5.00165 7.94234 5 7.97098 5 8L5 16C5 16.029 5.00165 16.0577 5.00486 16.0858C3.56906 16.4226 2.5 17.7115 2.5 19.25ZM5.75 21C4.7835 21 4 20.2165 4 19.25C4 18.2835 4.7835 17.5 5.75 17.5C6.7165 17.5 7.5 18.2835 7.5 19.25C7.5 20.2165 6.7165 21 5.75 21ZM5.75 6.5C4.7835 6.5 4 5.7165 4 4.75C4 3.7835 4.7835 3 5.75 3C6.7165 3 7.5 3.7835 7.5 4.75C7.5 5.7165 6.7165 6.5 5.75 6.5ZM16.5 13.25C16.5 14.2165 17.2835 15 18.25 15C19.2165 15 20 14.2165 20 13.25C20 12.2835 19.2165 11.5 18.25 11.5C17.2835 11.5 16.5 12.2835 16.5 13.25Z" fill="#1F2328"/>
</svg>
