<svg width="24" height="24" viewBox="0 0 24 24" fill="none" xmlns="http://www.w3.org/2000/svg">
<path fill-rule="evenodd" clip-rule="evenodd" d="M1.5 4.75C1.5 2.95507 2.95507 1.5 4.75 1.5C6.54493 1.5 8 2.95507 8 4.75C8 6.28853 6.93094 7.57736 5.49514 7.91418C5.49835 7.94234 5.5 7.97098 5.5 8L5.5 16C5.5 16.029 5.49835 16.0577 5.49514 16.0858C6.93094 16.4226 8 17.7115 8 19.25C8 21.0449 6.54493 22.5 4.75 22.5C2.95507 22.5 1.5 21.0449 1.5 19.25C1.5 17.7115 2.56906 16.4226 4.00486 16.0858C4.00165 16.0577 4 16.029 4 16L4 8C4 7.97098 4.00165 7.94234 4.00486 7.91418C2.56906 7.57736 1.5 6.28853 1.5 4.75ZM4.75 3C3.7835 3 3 3.7835 3 4.75C3 5.7165 3.7835 6.5 4.75 6.5C5.7165 6.5 6.5 5.7165 6.5 4.75C6.5 3.7835 5.7165 3 4.75 3ZM4.75 17.5C3.7835 17.5 3 18.2835 3 19.25C3 20.2165 3.7835 21 4.75 21C5.7165 21 6.5 20.2165 6.5 19.25C6.5 18.2835 5.7165 17.5 4.75 17.5Z" fill="#515360"/>
<path fill-rule="evenodd" clip-rule="evenodd" d="M18.5 16.087C17.0666 16.4255 16 17.7132 16 19.25C16 21.0449 17.4551 22.5 19.25 22.5C21.0449 22.5 22.5 21.0449 22.5 19.25C22.5 17.7132 21.4333 16.4255 20 16.087V7.75C20 5.67893 18.3211 4 16.25 4H12.1857L13.4053 2.78033C13.6982 2.48744 13.6982 2.01256 13.4053 1.71967C13.1124 1.42678 12.6376 1.42678 12.3447 1.71967L9.84467 4.21967C9.55178 4.51256 9.55178 4.98744 9.84467 5.28033L12.3447 7.78033C12.6376 8.07322 13.1124 8.07322 13.4053 7.78033C13.6982 7.48744 13.6982 7.01256 13.4053 6.71967L12.1857 5.5H16.25C17.4926 5.5 18.5 6.50736 18.5 7.75V16.087ZM17.5 19.25C17.5 18.2835 18.2835 17.5 19.25 17.5C20.2165 17.5 21 18.2835 21 19.25C21 20.2165 20.2165 21 19.25 21C18.2835 21 17.5 20.2165 17.5 19.25Z" fill="#515360"/>
</svg>
